<?xml version="1.0" encoding="UTF-8"?>
<svg version="1.1" viewBox="0 0 1203 1044" width="1203" height="1044" xmlns="http://www.w3.org/2000/svg">
<path transform="translate(589,158)" d="m0 0h44l75 6 70 7 49 6 58 9 26 5 28 7 11 3 16 7 7 5 3 7 2 19v35l-2 47-4 43-5 42-6 39-8 41-5 24-13 50-13 42-13 36-13 32-11 24-9 19-12 22-10 18-11 17-12 18-13 17-11 14-13 15-15 16-14 14-8 7-14 12-9 7-17 13-21 14-15 9-29 15-21 9-17 6-10-1-29-12-17-8-17-9-21-13-16-11-16-12-11-9-13-11-16-15-11-11-7-8-11-13-20-25-13-18-13-20-12-20-12-21-15-31-10-21-11-27-12-34-12-40-13-49-6-26-8-40-7-44-4-30-5-51-3-55v-47l3-9 8-7 21-8 17-5 38-8 44-7 44-6 76-8 56-5z" fill="#9C9C9B"/>
<path transform="translate(589,158)" d="m0 0h44l75 6 70 7 49 6 58 9 26 5 28 7 11 3 16 7 7 5 3 7 2 19v35l-2 47-4 43-5 42-6 39-8 41-5 24-13 50-13 42-13 36-13 32-11 24-9 19-12 22-10 18-11 17-12 18-13 17-11 14-13 15-15 16-14 14-8 7-14 12-9 7-17 13-21 14-15 9-29 15-21 9-17 6-10-1-29-12-17-8-17-9-21-13-16-11-16-12-11-9-13-11-16-15-11-11-7-8-11-13-20-25-13-18-13-20-12-20-12-21-15-31-10-21-11-27-12-34-12-40-13-49-6-26-8-40-7-44-4-30-5-51-3-55v-47l3-9 8-7 21-8 17-5 38-8 44-7 44-6 76-8 56-5zm14 74-63 5-42 4-58 7-44 7-31 7-21 7-9 5-5 5-2 4-1 8v39l2 39 4 42 5 38 7 40 8 36 10 39 14 43 14 36 13 28 15 29 12 20 15 22 12 16 9 11 11 12 7 8 11 11 8 7 14 12 15 11 20 13 18 10 19 9 21 8 7-1 21-8 23-11 20-12 16-11 13-10 15-13 15-14 12-13 13-15 12-16 14-20 16-27 14-26 13-28 14-36 12-36 8-28 10-42 7-36 7-47 4-38 2-31 1-24v-32l-1-12-3-6-5-4-10-5-22-7-34-7-38-6-69-8-66-6-27-2z" fill="#9B9B9A"/>
<path transform="translate(163,277)" d="m0 0h25l7 2 7 8 2 3 1 8v30l3 43v8l-14 14-5 6-5 5-8 10-1 3v19l3 8-6 4-7 3v12l8 8 14 11 10 8 13 7 6-1 7-6 4-2 6 1 2 1 1 5-2 5-9 6-6 3-19 5-1 3 7 8 5 6 3 30 2 18 1 15v15l-6 6-5-1-14-11-12-10-8-6-5-4-8-4-5-1-2 1 1 5 6 6 2 28 4 8 13 15h7l2-4 7-7 4-1 19-1 9-3 10-9 12-5 13-2 12 1 4 7v3l-2 1-25 2-3 1 1 4 6 10 1 1h10l11-1 7 9 9 13 1 3 2 17 1 2v6l-11 3-2 2-13-2-11-8-6-4-7-4-17-10-7-4-8-3-13-1-7 3v7l9 10 8 7 19 13 20 13 10 4 9 5 10-1 5-5 2-6h8l5-1 1-10 1-2 9-2 2 1 1 3 1 30-8 3h-6l-1 4 2 10 1 2h17l18-1h12l7 3-1 5-6 9h-2l-2 4-8 6-4 10v4l5 3 5 5 9 8 9 5 3 4 1 3v13l1 10 8 11 7 5 4 8v6l-4-1-11-8-13-5h-8l-16 4-14 3h-16l-12-2-20-8-9-8-5-6v-2l-8-1h-2l-2 4-5 7-3 7-4 1-3-3v-31l-1-17 2-8v-13l-3-11-7-19-4-11-6-9-5 1-5 18-5 38-4 15-5 8-6 3-25 4-22 2-10 2h-6l1-8 3-3 9-4 2-5v-19l6-12 8-7 11-4 19-5 7-4 2-6-6-12-5-37-3-7-9-9-14-10-6-7-4-27-1-1h-10l-5 2-8 16-4 13v8l4 17v17l-5 13-3 4-7 1-5-5-3-6-2-14v-31l-3 1-3 5-4 7-5-2-5-4 1-9 10-19 11-14 7-6 10-4 10-2 6-4 3-7v-8l-1-1v-10l9-15 5-14 1-5-1-15-1-10-6 5-16 8-21 8-5 1h-14l-5-2-1-3v-9l4-7 19-19 8-7 16-16h2v-6l-5-1-11 1h-26l1-5 9-9 7-8 7-6 5-8v-8l-4-13-2-12-8-2-16-1-9-3-10-10-5-4-1-6 8-4 14-2 11-4 16-8 4-8 8-13 5-12 4-8 3-10v-7l-2-9v-11l8-11 5-4z" fill="#F9F9F9"/>
<path transform="translate(730,248)" d="m0 0h9l57 7 41 7 25 6 18 6 12 6 2 4v56l-2 35-4 40-2 10-10 9-11 9-14 12-11 9-13 11-11 9-15 13-11 9-14 12-11 9-13 11-11 9-15 13-11 9-13 11-7 6-4 1-38-1-8-8-10-6-18-6-2-6v-36l4-3 18-6 14-7 6-7 4-10h2l-1-10-5-12-7-8-9-5-21-5-5-2v-11l1-15v-13l6-1 27-3 10-3h6v-2l10-4 10-6 8-11 2-8v-9l-4-12-5-8-5-6v-2l-4-2-10-6-6-3h-15l-7 1 5-5 6-5 3-3 6-5h2v-3l-4-2-6-4-5 2-13 10h-2l3-11 4-12-5-2-13-10v-1h23l2-9 4-12h2l7 20 23 1-4 4-13 9 1 8 1 6 22-18 1-3 4-1 2-3 4-2 8-8 5-3 10-9 4-4z" fill="#28235C"/>
<path transform="translate(585,239)" d="m0 0h56l2 1 22 1 2 1 22 1 2 1 18 1 16 2v2h-2v2h-2v2h-2l-2 4h-4v2h-2v2h-2v2h-2v2h-2v2h-4v2h-2v2h-2v2h-2v2h-2v2h-4v2h-2v2h-2v2h-2v2h-2l-2 4h-4v2h-2v2h-2v2h-2v2h-4l-2-5v-5l16-12-21-1-4-10-3-11h-2l-1 6-5 15-22 1 17 12-2 9-4 12-1 2 18-13 5 2 7 5v3l-4 1-2 4-4 1-2 4-14 11-8 6-4 5-11 9-12 2-6 7-2 4h-3v2h-2v2h-2v2h-2v2h-2v2h-4v2h-2v2h-2v2h-2v2h-2v2h-4v2h-2v2h-2v2h-2v2h-2v2h-2v2h-4v2h-2v2h-2v2h-2v2h-2v2h-4v2h-2v2h-2v2h-2l-2 4h-4v2h-2v2h-2v2h-2v2l-3 2h-3v2h-2v2h-2v2h-2v2h-2v2l-6 2v2h-2v2h-2v2l-3 2h-3v2h-2v2h-2v2h-2v2h-2v2h-2v2h-4v2h-2v2h-2v2h-2l-2 4h-4v2h-2v2h-2v2h-2v2l-4 4h-4v2h-2v2h-2l-2 4h-2v2h-4v2h-2v2h-2v2h-2v2h-2v2h-4v2h-2v2h-2v2h-2v2h-2v2h-4v2h-2v2h-2v2h-2v2h-2v2h-4v2h-2v2h-2v2h-2l-2 4h-4v2h-2v2h-2v2h-2l-2 4h-4v2h-2v2h-2v2h-2v2h-2v2l-3 2h-3v-8h-2l-2-8v-8h-2v-8h-2v-8h-2v-10h-2v-10h-2v-10h-2l-1-10-1-2-1-10-1-2-1-10-1-2v-14h-2v-16h-2l-1-18-1-1-1-19-1-4-1-34-1-2v-46h2v-6l4-4h2v-2h4v-2h4v-2h6v-2h6v-2h8v-2h8v-2l8-1 1-1 9-1 2-1h10v-2l10-1 2-1 12-1 1-1 14-1 1-1 14-1 2-1 14-1 2-1 16-1 2-1 16-1 1-1 21-1 4-1h22v-2h24z" fill="#FDDC11"/>
<path transform="translate(1032,277)" d="m0 0h24l3 3 8-2 9 1 11 4 9 8 2 6v9l-1 4v13l7 18 7 16 9 16 5 3 11 4 24 6 11 1 1 4-7 8-13 7-6 3-27 1-4 16-4 17 1 6 7 8 10 13 6 7-1 2h-2v2l-5 1h-12l-19-2 1 6 7 6 5 5 14 15 8 8 7 8 7 7v3l-12-1-15-6h-4l16 8 4 1 15 1v11l-1 1h-13l-14-3-23-8-13-7-4-1-1 29 5 9 7 10 4 8-1 7v14l4 8 5 2 12 3 11 7 10 10 10 16 6 13-1 4-5-1-10-17-11-17-3-1-1 1 4 4 10 16 7 11 3 5-1 5h-4l-8-16h-1l-1 46-5 13-3 3h-3l1-6 1-2v-6l-10-7-2-2v-20l3-11v-10l-3-10-7-13-4-5-3-1h-13l-2 10-3 16-4 7-8 7-10 9-7 6-2 5-6 38-5 7-1 8 3 5 4 3 16 5 11 3 8 5 4 4 1 3 4 4 2 7v21l13 3 3 3v8l-11-2-17-3-18-2-6-3-6-10-12-16-2-4v-5l8 1 11 3 9 1 12-3h3v-2l-5 2-12 1-26-5-2-1 1 6 3 9 7 11 8 10v3h-8l-5-3-5-7-4-12-4-23-2-19-4-21h-5l-8 13-6 14-5 14-3 11 1 28 1 10 1 15v17l-3 2h-5l-2-7-2-5-9-7h-5l-8 9-13 10-12 6-8 2h-23l-22-5-7-1h-9l-10 3-11 7-4 1 1-7 7-10 5-5 3-13 2-18 3-5 19-13 9-7v-8l-2-7-12-8-8-7-1-3 2-7 2-1 29 1 6 1h11l6-1 2-16-13-1-1-1v-29l1-3h8l2 4-1 11-2 11 7-1-4-2v-6l2-3h13l5 8 2 1h10l9-3 22-12 19-12 12-8 12-11 3-6v-6l-3-2-13-1-12 3-12 5-20 14-10 8-12 4-17-3-2-2 1-14 3-13 13-18 1-1h7l13 2 4-4 7-12 1-3-25-1-5-2 1-8 1-1h24l6 2 10 8 6 5v2l4 1 26 1 9 10 7 4 5-5 10-14 2-4 2-19v-10l5-5 5-6v-5l-6 1-19 12-10 8-12 9-11 8-5-2-5-5 1-17 4-33 3-25 7-9 4-5-1-3-20-8-7-4 1-2 6 2 17-1-16-1-6-3h-7l-1-5 1-1h7l10 6h9l10-7 14-12 10-9 7-6 2-8-1-5-9-5v-7l1-5v-12l-3-10-9-10-3-3-10-5-8-10-1-2-1-14v-30l2-10 5-5 6-4 6-11 10-2 5-2 5-9 6-3v-4l-3-1-2 4-10 2-3 3-3 6-8-1-4 4-6 12-4 2-1-1v-25l4-6 6-7zm15 96-11 2-1 1v11l3 1 7-2 7-7 1-5-1-1zm-113 347 1 2zm-46 39v2h11l-3-2z" fill="#F6F7F6"/>
<path transform="translate(883,431)" d="m0 0h2l-1 10-3 21-6 31-6 28-5 18-5 21-3 8-5 18-5 13-3 10-5 12-5 13-5 11-1 4h-2l-1 5-7 16-11 20-1 3h-2l-1 4-5 10h-2l-1 4-3 6h-2l-2 6h-2l-1 4-1 2h-2l-2 6h-2l-2 5-10 13-4 6h-2v2h-2l-2 4-6 8h-2v2h-2v2h-2l-2 4-18 18h-2v2h-2v2l-10 8h-2v2l-14 10h-2v2l-16 10h-2v2l-11 6-3 2h-4v2l-8 4h-4v2l-13 5-16 6-11-3-11-5-12-5-19-10-16-10-12-8v-2l-5-2-3-2v-2l-5-2-5-4v-2l-4-2-10-9-2-1v-2h-2v-2h-2v-2h-2v-2h-2v-2h-2v-2h-2v-2h-2l-6-7 1-4 3-1v-2h2v-2l10-8h2v-2l10-8h2v-2l10-8h2v-2h2v-2l9-7 3-1v-2l10-8h2l4 6v2h2v2h2v2h2v2h2v2h2v2h2v2h2v2h2v2h2v2l5 2 3 2v2l6 2v2h2v2h3l-2 5-8 14-3 10v2l4-2 5-10 6-8 4-5 4-1 7 4 4 1 2 34 1 18h2l2-37 1-16 8-1v-2l10-4h2v-2h4v-2h4v-2l6-2v-2l6-2v-2l8-6h2v-2h2v-2h2v-2h2v-2h2v-2h2v-2h2v-2h2l2-5 2-3h2l2-6h2l1-4 6-12 3-10v-97l6-5h2v-2h2v-2l8-6h2v-2h2v-2l8-6h2v-2h2v-2l10-8h2v-2l10-8h2v-2l10-8h2v-2h2v-2l10-8h2v-2l8-6h2v-2h2v-2l10-8h2v-2h2v-2l8-6h2v-2h2v-2l8-6h2v-2h2v-2l8-6h2v-2h2v-2l10-8h2v-2h2v-2l8-6h2v-2h2v-2z" fill="#E30714"/>
<path transform="translate(590,365)" d="m0 0 1 2h2v4h2l3 4 1 14-3 2-10 3-15 7h-2v2l-8 6-2 4h-2l-2 7-1 1v20l5 10v2h2v2l5 2 7 4 13 5 14 3 1 21v17l-16 8-9 8-1 2h-2l-1 4-2 4-1 12 2 7 6 8 6 5v2l6 2 8 4v2l5 1 1 1v9h-74v94l6 15 9 16v2l-11 9-13 11-11 9-15 13-10 8-7 6-4-2-11-13-4-4-4-7-10-14-11-17-12-21-14-27-11-24-14-37-12-36-3-10v-5l17-14 5-4 3-3 11-9 14-12 6-5 5-5 5-3 15-13 11-9 13-11 11-9 5-4 3-3 11-9 26-22 11-9 13-11 14-12 9-7 8-8 5-3z" fill="#28235C"/>
<path transform="translate(439,2)" d="m0 0h14l10 4 5 6 2 5 9 2 47 9 38 8 45 12h8l31-9 26-6 44-9 37-6 5-10 8-5 4-1h17l34 1 8 3 7 6 3 6v8l-4 6-5 4-9 3-20 4-8 1-5 4h-7l-6-4-3-4h-9l-46 10-50 13-3 1-1 2 9 2 6 1h6l4 5 29 12 10 4 4-2 4 1 5 7 23 11 7-3 8 1 3-13 3-2h8l5-10 5-4 7-2 10 1 6 3 7 4 21 5 18 8 13 9 7 8 5 10 2 8 1 13 4 14v10l-3 4-9 1-13-4-9 2h-10l-10-4-5-4-14-6-22-8-10-3h-6l-4 4-3 1h-8l-6-4-10 1-5-3-4-9-13-7h-2l1 11-5 10-8 4h-9l-8-4-4-6-1-3v-8l5-8 7-4h3l-2-3-19-8-4-1 2 3v12l-3 6-4 5-5 2h-9l-7-4-5-7-1-9 4-8 6-5h2v-4l-10-3-46-15-9-1-32 10-25 9h-2v4l5 2 4 5 2 4v9l-3 6-6 5-2 1h-11l-6-4-4-5-1-7 4-12-16 6-9 5 3 3 7 6 2 4v11l-4 6-5 4-4 1h-8l-6-4-6-7-1-11 1-3-14 7-4 6-2 4-4 2-10-1-7 4-13-1-4-3-9 1-21 7-13 5-12 7-5 3-4 1h-11l-8-2-13 4-9-1-3-3-1-9 3-12 2-5 1-16 4-10 7-9 8-7 10-6 16-7 21-5 11-6 2-1h14l6 4 4 5 3 6h7l4 3 2 12 8-1 4 2 7-1 19-9h2l2-5 2-3 9 1 27-11 12-5 4-4h9l12-3-1-2-42-11-44-10-14-3h-9l-5 6-4 2h-7l-7-5-17-2-15-4-7-4-5-6v-10l4-6 7-6 7-2h20zm381 83-7 2-5 5-3 8 1 5 4-4 6-8 6-7zm-433 6 2 4 8 7 11 17 4 5 7-1 2-2-1-6-6-9-6-7-11-7-2-1zm-13 10-10 2-10 9-5 10-1 5v13l1 2 6-1 16-8 15-6 7-2 9-1v-7l-3-7-5-5-5-3-6-1zm467 0-10 4-6 8-1 2v8l1 1 11 2 14 5 19 9 3 2h5v-18l-4-10-8-9-6-3-6-1zm39 6-1 4 4 15 1 9v10l-2 12-1 8 4 3 14 1 3-2 1-9-5-14-3-21-4-8-7-7zm-536 0-5 3-5 6-4 10-2 16-5 14v11h1v-6l4-2 6-1-1 5-5 4v2l12-1 5-4-3-13v-20l4-18v-6z" fill="#A0A09F"/>
<path transform="translate(370,873)" d="m0 0h9l11 3 5 6v8h9l7-1h21l7 3 2 3v24l26 5 26 7 13 5 16 8 19 8 25 9 21 6 18 3h17l25-5 22-7 24-9 31-14 24-8 36-8 1-25 6-4 3-1h19l8 1h10l1-10 5-4 9-2 8-1 3 1 1 16-1 41-3 5-5 4-9 2-1 8-4 6-6 3-12 1-2 9-7 8-10 4-27 6-18 6-25 11-16 9-15 9-18 8-20 6-24 5-8 1h-28l-25-4-21-6-17-7-19-10-13-8-25-12-20-7-21-5-16-4-6-4-4-4-2-6v-6h-13l-6-3-4-5-1-9-9-2-6-5-2-4-1-48v-8z" fill="#29255C"/>
<path transform="translate(163,277)" d="m0 0h25l7 2 7 8 2 3 1 8v30l3 43v8l-14 14-5 6-5 5-8 10-1 3v19l3 8-6 4-7 3v12l8 8 14 11 10 8 13 7 6-1 7-6 4-2 6 1 2 1 1 5-2 5-9 6-6 3-19 5-1 3 7 8 5 6 3 30 2 18 1 15v15l-6 6-5-1-14-11-8-7h3l21 16 4-2v-3l-9-7-1-14-9-14-15-23-11-18-17-44-5 3-9 19-7 13-12 6-25 11-19 1 1-4 7-8 14-14 8-7 16-16h2v-6l-5-1-11 1h-26l1-5 9-9 7-8 7-6 5-8v-8l-4-13-2-12-8-2-16-1-9-3-10-10-5-4-1-6 8-4 14-2 11-4 16-8 4-8 8-13 5-12 4-8 3-10v-7l-2-9v-11l8-11 5-4z" fill="#FCFCFC"/>
<path transform="translate(245,102)" d="m0 0 4 1 11 11 10 8 6 10-1 6-3 5v7l2 5-7 17-2 11-4 5-11 8-8 8-3 9-1 10-2 4-2 1-10-1-8-7-4-6-4-10-4-1-25 9-15 8-13 9-13 12-8 8-15 25-4 11-2 13-2 40-3 5-3-1-5-12-3-7-8-13-8-14-8-6-1-4v-36l3-19 6-9 5-4 1-4-7-12 1-7 6-5 10-5 1-1-1-9-1-4-15-3-4-2-4-7-7-2h-12l-9 3h-3l-1-5 7-16 7-9 6-7 8-5 10-3 10 2 8 6 18-12 2-2 6 1 2 6 1 19 2 9 2 2 2 10 5 6 16 14 8 3h11l16-3v-3l-9-5-11-6-8-8-6-5-1-8 3-17 5-9 3-1 6 4 8 3 23-1 17-2 15-1 6-3 7-9z" fill="#FCFCFC"/>
<path transform="translate(1032,277)" d="m0 0h24l3 3 8-2 9 1 11 4 9 8 2 6v9l-1 4v13l7 18 7 16 9 16 5 3 11 4 24 6 11 1 1 4-7 8-13 7-6 3-27 1-4 16-4 17 1 6 7 8 10 13 6 7-1 2h-2v2l-5 1h-12l-19-2 1 6 7 6 5 5 14 15 8 8 7 8 7 7v3l-12-1-15-6h-7l-17-8-5-8-12-25-5-3-15 39-6 12-14 22-11 17-5 8-1 14-9 8h-2l2 4 3 3-5-2-5-5 1-17 4-33 3-25 7-9 4-5-1-3-20-8-7-4 1-2 6 2 17-1-16-1-6-3h-7l-1-5 1-1h7l10 6h9l10-7 14-12 10-9 7-6 2-8-1-5-9-5v-7l1-5v-12l-3-10-9-10-3-3-10-5-8-10-1-2-1-14v-30l2-10 5-5 6-4 6-11 10-2 5-2 5-9 6-3v-4l-3-1-2 4-10 2-3 3-3 6-8-1-4 4-6 12-4 2-1-1v-25l4-6 6-7zm15 96-11 2-1 1v11l3 1 7-2 7-7 1-5-1-1z" fill="#FDFDFD"/>
<path transform="translate(979,103)" d="m0 0 3 1 4 9 8 4 15 4 36 1 12-7 9-3 3 2 1 38-8 6-14 10-8 4-1 5 6-1 3 1 14 1 11-1 2-4 18-14 6-4 2-5 2-32 3-7 7 1 13 12 3 1 2-6 6-6 14 1 11 5 3 3 7 8 4 7 5 8 5 13-1 3-5-1-6-4h-13l-5 2h-3l-2 5-8 5-12 3-3 4v10l3 3 11 5 1 5-1 9-3 4 1 6 10 11 2 5 3 27 1 26-2 4-10 8-10 14-7 16-5 12-3 2-3-5-2-27-3-19-4-14-6-15-10-14-9-10-5-6-17-12-28-14-10-2h-6l-3 4-5 12-10 7h-10l-4-8-4-21-7-6-9-4-5-5-2-10-4-11-3-9v-8l-1-10 2-8 11-12 7-6z" fill="#FCFCFC"/>
<path transform="translate(589,158)" d="m0 0h44l75 6 70 7 49 6 58 9 26 5 28 7 11 3 16 7 7 5 3 7 2 19v35l-2 47-4 43-5 42-6 39-8 41-5 24-13 50-13 42-13 36-13 32-11 24-9 19-12 22-10 18-11 17-12 18-13 17-11 14-13 15-15 16-14 14-8 7-14 12-9 7-17 13-21 14-15 9-29 15-21 9-17 6-10-1-29-12-17-8-17-9-21-13-16-11-16-12-11-9-13-11-16-15-11-11-7-8-11-13-20-25-13-18-13-20-12-20-12-21-15-31-10-21-11-27-12-34-12-40-13-49-6-26-8-40-7-44-4-30-5-51-3-55v-47l3-9 8-7 21-8 17-5 38-8 44-7 44-6 76-8 56-5zm6 5-78 6-70 7-64 8-46 7-35 7-26 7-16 7-6 4-4 5-1 7v58l3 47 4 39 6 44 8 48 10 47 12 45 12 39 10 29 15 37 11 25 17 34 11 20 13 21 12 18 10 14 10 13 9 11 11 13 11 12 25 25 11 9 13 11 18 13 15 10 26 15 16 8 22 10 20 7 11-3 27-11 24-12 22-13 18-12 16-12 10-8 13-11 15-14 17-17 7-8 11-13 11-14 12-16 10-15 11-17 14-24 15-29 11-22 15-36 13-35 11-34 13-47 10-43 7-37 7-45 6-51 3-36 2-46v-28l-1-17-3-7-9-6-15-6-21-6-34-7-52-8-64-8-70-7-64-5-14-1z" fill="#171E1C"/>
<path transform="translate(603,232)" d="m0 0h22l51 4 61 6 58 7 41 7 30 7 20 7 9 6 3 4 1 3 1 12v32l-2 43-4 41-5 37-7 41-10 44-9 34-12 36-10 27-11 26-13 27-13 23-12 20-14 20-14 18-13 15-16 17-13 12-11 9-17 13-17 11-21 12-22 10-19 7-7-1-20-8-25-12-18-11-19-13-16-13-10-9-12-11-9-9-7-8-12-14-12-16-20-30-12-21-15-29-12-27-10-26-12-35-8-28-10-41-7-36-6-37-5-43-3-38-1-24v-39l2-11 5-5 8-5 19-7 30-7 35-6 38-5 52-6 73-6zm-18 7v2h-24v2h-22l-4 1-21 1-1 1-16 1-2 1-16 1-2 1-14 1-2 1-14 1-1 1-14 1-1 1-12 1-2 1-10 1v2h-10l-2 1-9 1-1 1-8 1v2h-8v2h-8v2h-6v2h-6v2h-4v2h-4v2l-4 1-2 3v6h-2v46l1 2 1 34 1 4 1 19 1 1 1 18h2v16h2v14l1 2 1 10 1 2 1 10 1 2 1 10h2v10h2v10h2v10h2v8h2v8h2v8l2 8h2v8l4-1 2-1v-2h2v-2h2v-2h2v-2h2v-2l5-1 1-3h2v-2h2v-2h2v-2l5-1 1-3h2v-2h2v-2h2v-2h4v-2h2v-2h2v-2h2v-2h2v-2h4v-2h2v-2h2v-2h2v-2h2v-2h4v-2h2v-2h2v-2h2v-2h2v-2h4v-2l4-2v-2h2v-2h2v-2h4l4-4v-2h2v-2h2v-2h2v-2l5-1 1-3h2v-2h2v-2h2v-2h4v-2h2v-2h2v-2h2v-2h2v-2h2v-2l4-1 2-1v-2h2v-2h2v-2l6-2v-2h2v-2h2v-2h2v-2h2v-2l4-1 2-1v-2h2v-2h2v-2h2v-2l5-1 1-3h2v-2h2v-2h2v-2h4v-2h2v-2h2v-2h2v-2h2v-2h4v-2h2v-2h2v-2h2v-2h2v-2h2v-2h4v-2h2v-2h2v-2h2v-2h2v-2h4v-2h2v-2h2v-2h2v-2h2v-2h3v4l-4 2-6 4-4 4-8 7-28 24-14 11-10 9-11 9-13 11-5 3-5 5-10 9-11 9-13 11-11 9-8 7-3 1-5 5-8 7-14 12-9 7-8 7-14 12-3 2 1 8 9 29 13 36 11 26 12 25 15 28 12 19 11 16 6 8 2 4 5 5 9 11 4 2 10-9 10-8 13-11 14-12 11-9 7-6 3 1-10 8v2l-4 2-8 6v2h-2v2l-4 2-8 6v2l-4 2-8 6v2l-4 2-8 6v2h-2v2l-4 2 1 4 5 6h2v2h2v2h2v2h2v2h2v2h2v2h2v2l11 9 3 3h2v2l8 6h2v2l6 4h2v2l21 14 11 6 15 8 13 6 16 6 5 1 16-6 13-5v-2l5-1 7-3v-2l5-1 10-6 3-1v-2l6-2 12-8v-2l5-2 11-8v-2l5-2 7-6v-2h2v-2l4-2 18-18v-2h2v-2h2v-2h2l8-10v-2h2v-2h2l10-14 6-8v-2h2l2-6h2l2-3v-3h2l2-6h2l4-7v-3h2l6-11v-3h2l20-40v-4h2l5-14 5-11 5-14 3-7 3-10 3-7 5-18 3-8 5-21 5-18 7-34 5-25 4-25v-6l-4 2-8 6v2h-2v2l-4 2-6 4v2h-2v2l-4 2-8 6v2h-2v2l-5 2-5 4v2h-2v2l-4 2-6 4v2h-2v2l-5 2-5 4v2h-2v2l-4 2-8 6v2h-2v2l-5 2-5 4v2l-4 2-8 6v2h-2v2l-4 2-8 6v2l-4 2-8 6v2l-4 2-8 6v2h-2v2l-5 2-5 4v2h-2v2l-4 2-6 4v2h-2v2l-4 2-10 6 5-5 12-11 14-11 11-10 11-9 26-22 11-9 14-12 11-9 14-12 13-11 14-11 11-10 11-9 13-11 2-10 4-40 2-35v-56l-2-4-17-8-24-7-36-7-42-6-34-4h-9l-4 2-5 5-11 10-3 1-9 9-4 2-1 2-4 1-3 5-11 9-9 7v-3l3-1v-2h2v-2h2v-2h2v-2l5-1 1-3h2v-2h2v-2h2v-2h2v-2h4v-2h2v-2h2v-2h2v-2h2v-2h4v-2h2v-2h2v-2h2v-2h2v-2l5-1 1-3h2v-2h2v-2h2v-2l-16-2-18-1-2-1-22-1-2-1-22-1-2-1z" fill="#F6F5EE"/>
<path transform="translate(646,323)" d="m0 0h15l13 7 7 5 9 12 5 12 1 7-1 12-6 9-4 5-10 6-6 3h-4v2l-16 4-27 3-5 1v12l-1 15v11l13 3 12 3 9 5 7 7 4 8 2 6v10h-2l-1 6-5 8-7 6-13 6-18 6-1 1v36l1 5 18 6 11 7 7 7-1 2-4-2-8-7-14-6-11-3v9l11 3 8 4v1h-21v-201l1-12 5-4 1-8-3-6-5-3h-8l-6 2-2 5v9l5 6 1 9 2 123 1 41v39h-2l-1-9-5-2v-2l-4-1-10-5v-2l-4-2-6-6v-2l-2-1-2-3-1-12 2-8 3-6h2l2-4 8-7 12-6 3-1v-38l-9-1-14-4-10-5-6-4v-2h-2l-6-12v-20l4-8h2l2-5 6-5h2v-2l17-8 12-4-1-14-2-4h-2v-4h-2l2-10 7-8 12-2 12-10 6-7 8-5z" fill="#080C0B"/>
<path transform="translate(370,873)" d="m0 0h9l11 3 5 6v8h9l7-1h21l7 3 2 3v24l26 5 26 7 13 5 16 8 19 8 25 9 21 6 18 3h17l25-5 22-7 24-9 31-14 24-8 36-8 1-25 6-4 3-1h19l8 1h10l1-10 5-4 9-2 8-1 3 1 1 16-1 41-3 5-5 4-9 2-1 8-4 6-6 3-12 1-2 9-7 8-10 4-27 6-18 6-25 11-16 9-15 9-18 8-20 6-24 5-8 1h-28l-25-4-21-6-17-7-19-10-13-8-25-12-20-7-21-5-16-4-6-4-4-4-2-6v-6h-13l-6-3-4-5-1-9-9-2-6-5-2-4-1-48v-8zm443 43v2l-16 4-32 6-21 6-24 9-16 8-8 3-10 5-14 5-12 5-26 7-12 2h-19l-20-4-21-6-28-11-29-14-24-9-21-6-27-5-15-3-7-3-1 36 3 10 7 6 6 3 17 3 21 6 19 7 9 4 19 10 8 6 24 11 8 3 19 6 23 4 10 1h19l27-4 19-5 19-7 16-8 15-9 19-10 20-8 25-7 19-4 8-5 4-5 2-4-1-41z" fill="#D3D1CA"/>
<path transform="translate(1032,277)" d="m0 0h24l3 3 8-2 9 1 11 4 9 8 2 6v9l-1 4v13l7 18 7 16 9 16 5 3 11 4 24 6 11 1 1 4-7 8-13 7-6 3-27 1-4 16-4 17 1 6 7 8 10 13 6 7-1 2h-2v2l-5 1h-12l-17-2v-1h11l-1-15-9-10-8-10-11-13-5-6-2-20v-6l4-2-2-19v-10l2-2v-24l4-2v-26l5-4 1-12h-12l1 8-15 13-1 1h-17l1 14-12 9-5 2v20l-1 4 6 9v2h2v-6l4-1h9v1l-11 2v11l1 1 1 13-13-7-8-10-1-2-1-14v-30l2-10 5-5 6-4 6-11 10-2 5-2 5-9 6-3v-4l-3-1-2 4-10 2-3 3-3 6-8-1-4 4-6 12-4 2-1-1v-25l4-6 6-7z" fill="#28903B"/>
<path transform="translate(245,102)" d="m0 0 4 1 11 11 10 8 6 10-1 6-3 5v7l2 5-7 17-2 11-4 5-11 8-8 8-3 9-1 10-2 4-2 1-10-1-8-7-2-2-3-13v-11l2-22-26 3-9-6-9-4-8-6-11-10-1-8 3-17 5-9 3-1 6 4 8 3 23-1 17-2 15-1 6-3 7-9z" fill="#26903A"/>
<path transform="translate(979,103)" d="m0 0 3 1 4 9 8 4 15 4 36 1 12-7 9-3 3 2 1 38-8 6-14 10-10 5-5 2-24-3 2 22v11l-3 11-8 10-2 1h-10l-4-8-4-21-7-6-9-4-5-5-2-10-4-11-3-9v-8l-1-10 2-8 11-12 7-6z" fill="#27903A"/>
<path transform="translate(970,743)" d="m0 0h2l-2 23 5 12 14 30 3 8 1 15v17l-3 2h-5l-2-7-2-5-9-7h-5l-8 9-13 10-12 6-8 2h-23l-22-5-7-1-3-2 2-4 4-5h2l2-4 10-13 11-13 3-4h2l2-5 4-4 2-3h2l2-5 9-10 9-11 14-11 16-13z" fill="#076C34"/>
<path transform="translate(250,743)" d="m0 0 5 2v2l5 2 17 14 11 9 9 11 2 5 4 2 8 10v2h2l9 11 3 4v2l4 2 10 13 9 11 1 4-6 2-11 2-1 2-8 2h-22l-16-2-14-6-9-8-5-6v-2l-8-1h-2l-2 4-5 7-3 7-4 1-3-3v-15l1-20 9-20 8-16 4-10v-8l-2-10z" fill="#086C35"/>
<path transform="translate(125,622)" d="m0 0h20l4 1 15 26 4 7 1 6v11l14 2 2 3 3 14 10 19 6 12-3 25-5 38-4 15-5 8-6 3-25 4-22 2-10 2h-6l1-8 3-3 9-4 2-5v-19l6-12 8-7 11-4 19-5 7-4 2-6-6-12-5-37-3-7-9-9-14-10-6-7-4-27-1-1-14-1z" fill="#2B913E"/>
<path transform="translate(163,277)" d="m0 0h25l7 2 7 8 2 3 1 8v30l3 43v8l-14 14-5 6-5 5-8 10-1 3v19l3 8h-3l-3-8v-22l9-11 3-4 1-11-7 1-10-12-2-5 18 1 4 1v6h2l2-5 4-6-1-4-1-20-11-7-5-4 1-14h-16l-11-9-6-5 1-8-13 1v12l5 5-1 26 5 1v7l-1 3h-6l-10 12-9 12-4 5-12 1-10 11-3 4h-12l-19-8-1-2 5-2 14-2 11-4 16-8 4-8 8-13 5-12 4-8 3-10v-7l-2-9v-11l8-11 5-4z" fill="#FBFBFA"/>
<path transform="translate(1075,298)" d="m0 0h12v12l-5 5v25l-4 2v24l-2 2v10l1 9v10l-3 2 1 17 1 9 9 10 18 22 6 7 1 15-2 1-19-2-3-2-1-3v-8l1-4-4 1h-10l-9-10-4-4-4 1-6-3v-7l1-5v-12l-3-10-9-10-1-4v-10l8-3 6-6 1-5h-18v6h-2l-7-11 1-4 1-20 12-8 4-3v-14l17-1 11-10 4-3z" fill="#27903A"/>
<path transform="translate(135,298)" d="m0 0h12v8l14 12 2 1 16 1v14l13 9 3 2 1 20 1 4-7 11h-2v-6l-19-1-3-1 8 11 4 5 7-1 1 2-1 10-9 11-3 4v22l3 10-9 2-5 1-13 13h-12v11l-2 4-8 2-14 1-1-1 1-15 10-11 11-14 12-14 2-20v-6l-3-2v-10l1-9v-10l-2-2v-24l-4-2v-26l-5-4z" fill="#258F38"/>
<path transform="translate(1077,622)" d="m0 0h20l1 9-1 1-14 1-2 10-3 16-4 7-8 7-10 9-7 6-2 5-6 38-5 7-1 8 3 5 4 3 16 5 11 3 8 5 4 4 1 3 4 4 2 7v21l13 3 3 3v8l-11-2-17-3-18-2-6-3-6-10-12-16-2-4v-5l8 1 11 3 9 1 12-3h3v-2l-5 2-12 1-26-5-2-1 1 6 3 9 7 11 8 10v3h-8l-5-3-5-7-4-12-4-23-2-19-1-4-1-14-1-5 11-23 6-12 3-13 13-3h2v-10l2-9 15-26 3-5z" fill="#329544"/>
<path transform="translate(666,604)" d="m0 0 5 5 4 5 3 3 1 6 8 15 3 6 4 5-3 2-3-1-1 4h-3v9l-5-2-10 4-2 4-1 9-1 1-8-1-3-1-1-5h8l-5-1-1-2h-5l2 2-1 4-9 2-6 5-9 2-5 1v-2h2l-2-5-2-1-9-1-2-4v-4l-4-2-4-4-7-3-5 6-7 1-19-2-3-2-13-2-11-3 1-5 4-5 1-5-1-4 4-2 14-3 5-2 2 1 9-1 7-3h7v5l-2 3 5 6 10 7 3 1v3h2v2h5l-1-2h6l2 1v2l10-2 2-4 4-18 8-3-1-7 7-2 6-3 9-9z" fill="#FCFCFC"/>
<path transform="translate(149,486)" d="m0 0 2 1 18 46 7 11 10 16 8 12 9 14 1 14 10 8-4 5-4-2-19-14-6-3-9-7-5-4-11-6-8-3-3-7-4-25-1-10-6 5-16 8-21 8-5 1h-14l-5-2-1-3v-9l20-2 29-13 8-4 15-31z" fill="#2C933F"/>
<path transform="translate(1072,486)" d="m0 0 5 3 10 19 7 14 20 9 16 8 4 1 15 1v11l-1 1h-13l-14-3-23-8-5-3-3-3-9-5-3 31-3 10-3 3-8 3-17 11-10 8-12 9-9 7-5-1-2-2v-3l10-8 1-14 15-24 10-15 9-15 16-41z" fill="#29913C"/>
<path transform="translate(1032,277)" d="m0 0h24l3 3 8-2 9 1 3 2h-5l1 14h13l1 1v16l-4 2-1 28-4 2v9l6-1 7 8 10 13 6 8 13 1 9 11 3 4h12l19-8 3 1-3 3-17 7h-15l-9-10-4-5-12-1-8-9-12-16-2-3-6-1 1 11-3 3 2 23v6l-3 2v10l1 11 4 7 11 13 9 11 10 12v3l10 1 8 6 5 4-3 1v2l-5 1h-12l-17-2v-1h11l-1-15-9-10-8-10-11-13-5-6-2-20v-6l4-2-2-19v-10l2-2v-24l4-2v-26l5-4 1-12h-12l1 8-15 13-1 1h-17l1 14-12 9-5 2v20l-1 4 6 9v2h2v-6l4-1h9v1l-11 2v11l1 1 1 13-13-7-8-10-1-2-1-14v-30l2-10 5-5 6-4 6-11 10-2 5-2 5-9 6-3v-4l-3-1-2 4-10 2-3 3-3 6-8-1-4 4-6 12-4 2-1-1v-25l4-6 6-7z" fill="#349546"/>
<path transform="translate(370,873)" d="m0 0h9l11 3 5 6v8h9l7-1h21l7 3 2 3v24l21 4-3 2-14 1-27-5-6-3-1 34-2-1v6l-1 1h-14l-5-4-2-3-1-9-9-2-6-5-2-4-1-48v-8z" fill="#CFCAA3"/>
<path transform="translate(136,355)" d="m0 0h6l1 12 2 2-2 28 3 3v11l-1 11-4 6-11 13-18 22-2 4-12 3-11 10-2 3h-2l2-4 18-22 5-8v-8l-4-13-2-12-8-2-16-1-9-3-10-10-5-4-1-5 14 5 8 3 15 1 2-4 9-11 1-1 12-1 10-12z" fill="#278F3A"/>
<path transform="translate(245,102)" d="m0 0 4 1 11 11 10 8 6 10-1 6-3 5v7l2 5-7 17-2 11-4 5-11 8-10 10-2-14-5-25-1-11 9-10 9-11 5-6-68 6h-13l-17-17v-3l3-1 6 4 8 3 23-1 17-2 15-1 6-3 7-9z" fill="#FCFCFC"/>
<path transform="translate(203,643)" d="m0 0h9l14 7 20 9 3 2 19 2 1 1-1 11-2 10-7-4-3-4v-2l-9-1-17-10-16-6-13-1-7 3v7l9 10 8 7 19 13 20 13 10 4 9 5 10-1 5-5 2-6 14 1 1 1 1 9h-15l-1 14-1 1-13 2-12 1-3 1h-10v-2l-5-2-9-7-1-12-1-3-4-2-8-7-3-3-12-1-14-18-5-6-14-3-1-15 9-9 9-2z" fill="#288F3B"/>
<path transform="translate(1010,643)" d="m0 0h9l22 3 8 7 3 3-1 15-14 3-10 12-9 12-12 1-4 2-2 4-7 6h-2v2h-2v13l-12 9h-2v2h-9l-29-4-1-2-1-12-14-1v-6l2-3h13l5 8 2 1h10l9-3 22-12 19-12 12-8 12-11 3-6v-6l-3-2-13-1-12 3-12 5-17 12-5 2-6 5h-3v2l-3-1-3-17 1-5 13-1 8-1v-2l24-11z" fill="#369648"/>
<path transform="translate(979,103)" d="m0 0 3 1 4 9 8 4 15 4 36 1 12-7 9-3 3 2v11h-1l-1-8-8 7-11 11h-13l-65-6h-3l9 11 11 12 3 4-1 12-7 34-2-4-7-6-9-4-5-5-2-10-4-11-3-9v-8l-1-10 2-8 11-12 7-6z" fill="#FDFDFD"/>
<path transform="translate(149,480)" d="m0 0h6l10 10 20 1 7 9v2l30-1 2-1h7l-1 3-11 6-19 5-1 3 7 8 5 6 3 30 2 18v18h-11l-1-11-5-9-16-25-13-20-15-39-4-9z" fill="#27903B"/>
<path transform="translate(868,751)" d="m0 0 5 2 7 5 8 2h36l21-1-2 4-6 4-4 2-2 4-10 13h-2l-2 4-2 3h-2l-2 4-6 8h-2l-2 4-6 8h-2l-2 5-4 5h-2l-2 4-12 14-3 5-16 4-3 3-5 1 2-5 3-5 4-3 3-9 2-26 3-5 19-13 9-7v-8l-2-7-12-8-7-7z" fill="#0E7039"/>
<path transform="translate(277,759)" d="m0 0 23 1h42l-3 5v2l-4 2-4 16 5 2 16 14 9 5 3 4 1 3v13l1 10 8 11 7 5 3 5v6l-4-1-4-4-5-2-1-2-5-1-11-3-7-9v-2h-2l-6-8-9-10-10-13-1-3h-2l-4-5v-2l-3-1-1-4-4-2-2-5-3-1-1-4-4-2-2-5-4-2v-3h-2v-2l-4-1v-2l-5-2z" fill="#0B6E37"/>
<path transform="translate(1067,480)" d="m0 0h6l-1 3h-2l-1 5-16 42-10 16-15 23-9 15-1 2-1 11h-11l2-33 4-32 7-9 4-5-1-3-20-8-7-4 1-2 6 2 27-1 8-11h21l2-4z" fill="#27903A"/>
<path transform="translate(647,326)" d="m0 0h12l8 3v2l5 1 10 9 6 8 4 10 1 4v12l-5 10-8 7-11 6-16 5-18 3-9 1h-10v-17l2-2 21-3 15-5 10-6 4-6 1-3v-10l-1-7h-2l-2-3-7 1-7 2h-22l-3-3 1-7 9-8z" fill="#F7F7F6"/>
<path transform="translate(444,5)" d="m0 0h9l6 3 3 3 1 8 43 7 41 9 41 11 43 13 47 16 2 1 1 8-9-2-35-12-37-11-49-13-46-11-44-9-36-6-8-1h-14l-2 1v5l5 4 11 4 19 2-1 2-7 2h-8l-15-3-9-7-4-5-1-6 3-5 8-4 5-1h15z" fill="#FDFDFD"/>
<path transform="translate(813,963)" d="m0 0h2v6l-7 8-10 4-27 6-18 6-25 11-16 9-15 9-18 8-20 6-24 5-8 1h-28l-25-4-21-6-17-7-19-10-13-8-25-12-20-7-21-5-16-4-6-4-4-4-1-6 4 2 8 5 24 5 20 6 16 6v2l6 1 22 11v2l6 2v2l4 1 16 8 10 4 19 6 20 4 16 2h21l27-4 17-4 7-3 10-3 5-1v-2l8-3 4-1v-2l8-4h2v-2l10-6 8-4h4v-2l13-5 12-5 28-8 15-3 6-3h2v-2h2v-2h2z" fill="#DC202A"/>
<path transform="translate(209,178)" d="m0 0h1l-1 22-5 1v2l-25 9-15 8-13 9-13 12-8 8-15 25-4 11-1 8-2 4-1 13-5 2-4-1-1-2v-20l7-21 21-49 4-8 27-5 8-7 5-6h28l2-4z" fill="#2D9340"/>
<path transform="translate(1012,178)" d="m0 0 7 6 6 7v2h28l4 4v2h2l5 6 13 3 16 3 6 12 11 26 10 24 5 16v20l-1 3-7-1-2-2v-8h-2l-4-18-8-21-10-14-9-10-5-6-17-12-28-14-10-2v-2l-8-1-1-1z" fill="#2B923E"/>
<path transform="translate(840,879)" d="m0 0h15l1 1v42l-4 6-8 4-4 1 8-1 8-5-2 7-3 5-9 3h-2l-1 8-4 6-6 3h-10l-2-1v-6l10-1-11-1-1-44-3-5-8-2-11-1-3-1v-2l2-1h19l22 2 6-1-1-8-1-6z" fill="#28255B"/>
<path transform="translate(604,351)" d="m0 0h8l6 4 3 6-1 8-5 4-1 12-1 37-1 164h-6l-2-39-2-92-1-72-1-9-5-6v-9l3-5z" fill="#F9F9F9"/>
<path transform="translate(97,156)" d="m0 0h10l2 6 31 31h25l-2 4-6 7-25 5h-34l-18-12 1-4 4-4 8-4 1-1-1-9-1-4-15-3-2-1 1-3 14-7z" fill="#29913C"/>
<path transform="translate(1115,156)" d="m0 0h10l9 2 13 7-4 3-12 3-3 4v10l3 3 11 5 1 3-17 12-1 1h-35l-25-5-8-9v-2h25l32-32z" fill="#28903B"/>
<path transform="translate(1102,622)" d="m0 0h7l9 3 11 8 8 8 10 16 6 13-1 4-5-1-10-17-11-17-3-1-1 1 4 4 10 16 7 11 3 5-1 5h-4l-8-16h-1l-1 46-5 13-3 3h-3l1-6 1-2v-6l-10-7-2-2v-20l3-11v-10l-3-10-7-13-2-2-1-5v-8z" fill="#309343"/>
<path transform="translate(771,5)" d="m0 0h10l22 3h16l9 4 5 5v6l-7 8-7 5-16 3-11-1-4-3 19-2 10-3 7-6-1-4-1-1h-14l-39 6-45 9-38 9-36 9-11 3h-7l-10-3 1-2 43-12 42-10 33-6 21-3 1-9 5-4z" fill="#FDFDFD"/>
<path transform="translate(140,281)" d="m0 0h8v13l-1 1-13 1v15l5 5-1 26 5 1v7l-1 3h-6l-10 12-9 12-4 5-12 1-10 11-3 4h-12l-19-8-1-2 5-2 14-2 11-4 16-8 4-8 8-13 5-12 4-8 3-10v-7l-2-9v-11l8-11z" fill="#309243"/>
<path transform="translate(188,681)" d="m0 0 5 5 10 13 12 1 10 10 6 5v12l4 2 10 8v2h2l3 19v10l-9 19-8 18h-2v-26l-3-11-7-19-4-11-6-12-7-5-15-31z" fill="#2F9342"/>
<path transform="translate(1033,681)" d="m0 0h1l-1 10-16 32-4 1-10 17-9 22-4 15v26l-3-4-12-26-3-6v-10l3-19h2l1-3 11-9h2v-12l15-14 1-1 12-1 13-16z" fill="#288F3C"/>
<path transform="translate(1074,281)" d="m0 0h9l9 6 5 6 1 4v9l-1 4v13l7 18 7 16 9 16 5 3 11 4 24 6-1 2-17-2-1 4 3 1-1 4 6 1-3 2h-12l-11-13-1-3h-13l-12-15-10-13-4-1h-3l-1-9 5-2v-28l5-2-1-16-13-1-1-2z" fill="#309342"/>
<path transform="translate(113,109)" d="m0 0 6 1 2 6 1 19 2 9 2 2 2 10 5 6 16 14 8 3h11l25-3 15-1-6 8-6 7-3 1-52 1-32-32v-46z" fill="#2E9340"/>
<path transform="translate(308,692)" d="m0 0 4 1 1 3 1 30-8 3h-6l-1 4 1 13h51l1 3-13 9-11 1h-33l-19-1-7-3-12-10v-2l-5-2v-2l36-5v-12l1-2h16l-4-17 1-8 2-2z" fill="#11723A"/>
<path transform="translate(911,695)" d="m0 0h8l2 4-1 11-2 11 7-1h8l2 14 35 5-1 3-4 1v2l-9 7-6 5-4 1-21 1h-26l-16-1-12-8-2-2 1-4 29 1 6 1h11l6-1 2-16-13-1-1-1v-29z" fill="#0E7038"/>
<path transform="translate(99,639)" d="m0 0h17l2 1-2 5-5 13-2 14h2l4 17v17l-5 13-3 4-7 1-5-5-3-6-2-14v-31l-3 1-3 5-3 6-5-2-1-2 15-24 4-5 3-6z" fill="#278F3A"/>
<path transform="translate(1109,241)" d="m0 0h7l16 16 16 1 1-5 3-5 2 2 2 31-1 8-11 9-10 14-7 16-5 12-3 2-3-5 3-9 7-18v-22l-8-23-9-22z" fill="#349546"/>
<path transform="translate(106,241)" d="m0 0h7l-3 10-8 19-6 18v22l9 23v9l-2 1-3-3-6-16-9-14-8-14-8-6-1-4v-36l3-1 4 9 15-1 10-10h2v-2z" fill="#2D913F"/>
<path transform="translate(237,624)" d="m0 0h6l8 13 2 3v3l13-3h10l6 8 5 5 5 7 1 3 2 17 1 2v6l-11 3-2 2-13-2v-7l-1-4 2-17-17-2-22-10 2-6 2-3z" fill="#0E7038"/>
<path transform="translate(139,774)" d="m0 0 17 4 10 1 21-5h4l-1 5-5 10-9 12-8 11-36 5h-9v2h-4v-7l3-3 9-4 2-5 2-17 3-8z" fill="#268F39"/>
<path transform="translate(1032,775)" d="m0 0 8 1 11 3 9 1 18-5h6l3 6 1 4v21l13 3 3 3v8l-11-2-17-3-18-2-6-3-6-10-12-16-2-4z" fill="#2C923F"/>
<path transform="translate(1106,111)" d="m0 0h5l2 3v46l-32 32-54-1-10-11-3-5 14 1 42 4 16-14 5-5 5-4 4-4 1-3 2-32z" fill="#2A903D"/>
<path transform="translate(151,280)" d="m0 0h11l-2 9-1 3 5 2 5 3 4 8 13 1 5 12 14 10 3 43v8l-14 14-5 4h-2l1-11 10-16 1-4-2-3-1-19-15-11 1-15h-18l-11-9-5-6 1-5 1-17z" fill="#2C903E"/>
<path transform="translate(1140,200)" d="m0 0h2v7l-3 4 1 6 10 11 1 2v15l-5 11h-12l-8-7-9-9-10-2-11-25 1-2 29-1 10-7z" fill="#2A913D"/>
<path transform="translate(78,199)" d="m0 0 5 2 12 8 1 1 29 1-1 6-9 21-8 1-10 9-7 7-2 1h-12l-6-14 1-11 6-9 5-4 4-6-7-7z" fill="#28903B"/>
<path transform="translate(598,392)" d="m0 0h1v17l-11 5-5 2-5 4-1 2h-2v14l3 5 4 3v2l18 4v16l-10-1-18-6-8-6-6-7-2-5-1-6v-8l3-10 7-9 10-7 14-6z" fill="#F7F7F7"/>
<path transform="translate(979,624)" d="m0 0h6l1 18 3 5v4l-20 10-18 2 2 21h-2l1 6-4 1-17-3-2-2 1-14 3-13 13-18 1-1h7l13 2 4-4z" fill="#096D35"/>
<path transform="translate(615,453)" d="m0 0 10 1 12 3 12 6 7 8 3 7 1 9-2 8-4 7-7 6-13 6-14 5h-5v-13l15-8 10-9 1-10h-2v-2l-5-2-5-3-13-3-1-1z" fill="#F6F6F6"/>
<path transform="translate(140,476)" d="m0 0 4 2 4 6-5 4-13 28-2 4-25 12-11 5-7 1h-9l1-4 13-13 16-17 13-13h2v-2l7-6z" fill="#2A913D"/>
<path transform="translate(1067,278)" d="m0 0 9 1 3 2h-5l1 14h13l1 1v16l-4 2-1 28-4 2v9l6-1 7 8 10 13 6 8 13 1 9 11 3 4h12l19-8 3 1-3 3-17 7h-15l-9-10-4-5-12-1-8-9-12-16-2-3-6-1 1 11-3 3 2 23v6l-3 2v10l1 11 4 7 11 13 9 11 10 12v3l10 1 8 6 5 4-3 1v2l-5 1h-12l-17-2v-1h11l-1-15-9-10-8-10-11-13-5-6-2-20v-6l4-2-2-19v-10l2-2v-24l4-2v-26l5-4 1-12h-12l1 8-15 13-1 1h-17l1 14-12 9-5 2v20l-1 4 6 9v2h2v-6l4-1h9v1l-11 2v11l1 1 1 13-13-7-8-10-1-5 4 5 10 9 5 4-2-12-11-16 1-4 1-1 1-20 9-7 6-4v-15l18-1 11-9 4-5-1-5-1-17-9-1v-1z" fill="#FCFCFC"/>
<path transform="translate(718,258)" d="m0 0 3 1 2 8v4l2 1 1 7h23l-2 4h-2v2l-6 4h-2v2l-4 1-1 4 6 18v2l-5-2-12-9h-4-2v2l-4 1v2l-4 1v2l-5 3h-2l2-9 4-14-5-2v-2l-6-2v-2h-2v-2l-4-2 4-2 2-3 4-2 8-8 5-3z" fill="#08110C"/>
<path transform="translate(1080,476)" d="m0 0 6 2 10 6 5 5 5 6 7 6 7 8 11 11 7 8 7 7v3l-12-1-24-10-15-7-13-27-3-6-4-4z" fill="#29903C"/>
<path transform="translate(765,923)" d="m0 0h8v2h-8v2h-8v2h-6v2l-8 2h-4v2l-7 2h-5v2h-4v2l-5 2h-5v2h-4v2h-4v2h-4v2h-4v2h-4v2l-6 2h-4v2l-5 2h-5v2h-4v2h-6v2h-6v2h-8v2h-6v2h-8v2h-12v2l-8 1-12-1v-2h-12v-2h-8l-8-2v-2h-6v-2h-6v-2h-6v-2h-5l-5-2v-2h-6v-2h-4v-2h-4v-2h-4v-2h-4v-2h-6v-2h-4v-2h-4v-2h-4v-2h-4v-2h-6v-2h-4v-2h-6v-2h-6v-2h-6v-2h-8v-2h-6l-2-1v-2h8l26 7 13 5 16 8 19 8 25 9 21 6 18 3h17l25-5 22-7 24-9 31-14 24-8z" fill="#FBDE25"/>
<path transform="translate(220,695)" d="m0 0 6 1 8 5 7 3 9 6 10 4 9 5 10-1 5-5 2-6 14 1 1 1 1 9h-15l-1 14-1 1-13 2-12 1-3 1h-10v-2l-5-2-9-7-1-12-1-3-4-2-8-7-1-5z" fill="#16753E"/>
<path transform="translate(246,780)" d="m0 0 3 2-1 4 3 1v8l4 2v13l1 5 7-1 2 4-3 3v2l6-1 4 6v3h-4l2 5-5 1 4 4h2l5 6 1 3 2 1-6-1-8-6-8-9v-2l-8-1h-2l-2 4-5 7-3 7-4 1-3-3v-15l1-20 9-20z" fill="#29903C"/>
<path transform="translate(1052,663)" d="m0 0h1v10l-13 3h-2l-3 16-10 19-6 14 1 10h-1l-2-9-5-1 1-2h4l2-6 10-21 3-5 1-8-11 13-3 4-12 1-10 10-5 4-1 12-10 8-4 4h-2l-1 12-1 7v10l5 10 11 24v-17h1l1 11v10l-1 5-2-3-14-30-5-12 2-19 1-4-11 8-11 9-15 12-9 11-8 10-7 9h-2l-2 5-5 5-12 14-8 11-10 11-1 2 2 1-13 2-10 5-9 5h-1l1-7 7-10 5-5 3-13h1v8l-4 10-5 4-4 8 7-2 1-3 16-4 4-6 12-14 1-2h2l2-4 4-6 4-4 6-8 5-5 5-7 5-5 9-11 6-8 6-5 5-3 1-2-2 1-19 1h-25l-3-1h-13l-7-4-8-5-1 4-1-3 2-7 4 5 11 7 16 1h26l21-1 7-3 10-9h2v-2l4-2 1-2-14-1-21-3-1-1-1-14-11-1v-1h13l1 1 1 14 14 1 24 3v-2l6-4 6-5h2v-13h2v-2l10-8 5-5 12-1 13-17 6-7 14-2v-7zm-118 57 1 2z" fill="#F8F8F8"/>
<path transform="translate(1137,113)" d="m0 0 14 1 11 5 3 3 7 8 4 7 5 8 3 7-1 4-6-5v-2l-5-2-7-6v-2h-2v-2l-4-2-7-6-3 1-6 10-6 1h-9l-1 13-2 1-9-1-1-1v-36l5 1 6 6 3 1 2-6 5-5z" fill="#2D8F40"/>
<path transform="translate(1e3 694)" d="m0 0h3l1 5-4 2-2 4-7 6h-2v2h-2v13l-12 9h-2v2h-9l-29-4-1-2-1-12-14-1v-6l2-3h13l5 8 2 1h10l9-3 22-12 3-2 10-2h2v-2h2z" fill="#14743D"/>
<path transform="translate(974,778)" d="m0 0 3 4 13 29 2 5 1 15v17l-3 2h-5l-2-7-2-5-9-7h-5l-8 9-13 10-12 6-8 2h-23l-10-2v-1l6-1 4 1h24l10-4 4-1v-2l8-6h3l1-3h2v-2l2-2 1-4h3l-2-8 5-5 1-4 2-1 2-5v-4-2l-2-1 2-6 3-1 1-7h2v-3l-2-1z" fill="#2E9240"/>
<path transform="translate(660,347)" d="m0 0h3v2h2l2 6v10l-4 7h-2v2l-14 7-17 4h-13v-10h2v-2h2l2-11-2-9 5-2 25-1z" fill="#29235D"/>
<path transform="translate(75,115)" d="m0 0 10 2 8 6 6-4 4-3h4v37l-1 1-10 1-1-1-1-13h-9l-7-2-5-9v-2l-5 3-10 9-11 9-7 7h-2l1-6 7-14 11-13 8-5z" fill="#2C913F"/>
<path transform="translate(432,95)" d="m0 0h5l3 4 3 15v4h2l1-6 5-5 5 3 5-1 21-9h2l1 9-19 10-4 1 2 10-1 9-5 1-9-6v8l-3 4-7-1-5-5 9 2-1-6-4-2-7-7-3-7-1-5v-10l3-8z" fill="#FDFDFD"/>
<path transform="translate(787,95)" d="m0 0h5l4 5 1 3v15l-4 10-12 11-1 3 9-2h3l-8 6h-6l-3-6-1-6-6 5-5 1-2-2v-11l1-6-17-9-5-3v-9l9 3 16 7 4 1v-2l5-2 4 4 2 5 2-4 4-16z" fill="#FDFDFD"/>
<path transform="translate(874,597)" d="m0 0 9 1 8 4 6 7 1 3v11l-4 8-7 6-3 1h-11l-8-4-5-6-2-5v-10l5-10 5-4z" fill="#09140F"/>
<path transform="translate(414,894)" d="m0 0h20l1 3-3 1-17 2-4 3-1 3-1 44h-10l-6-2-5-6-2-9v-22l1-15z" fill="#29265C"/>
<path transform="translate(852,873)" d="m0 0 5 1 1 16-1 41-3 5v-3l1-5-7 5h-8l-1 2v-38h1v35l11-4 4-6v-42h-15l-2 1 1 6 1 9-11 1-18-2h-21v2l14 1 3 1v2h2v2h4v12l-8 4h-8v2h-10v2h-13l1-2 9-2 1-25 6-4 3-1h19l8 1h10l1-10 5-4 9-2z" fill="#E0D8A3"/>
<path transform="translate(245,102)" d="m0 0 4 1 11 11 5 4 4 5v2l-19 2-68 6h-5l-1-9 1-1 30-3h7v-2l15-1 6-3 7-9z" fill="#2B903D"/>
<path transform="translate(979,103)" d="m0 0 3 1 4 9 8 4 15 4 25 1 11 2 1 5-1 4-37-3-48-4-6-1 2-4 10-10z" fill="#2D9140"/>
<path transform="translate(160,453)" d="m0 0h2l2 12 6 5 6 3 12 10 12 9 10 5 6-1 4-4 9-2 5 2v5l-11 1-2 2h-27l-7-9-1-2-21-1-9-9-6-1-5-1-4-5-2-8 12-1z" fill="#349546"/>
<path transform="translate(183,734)" d="m0 0 5 5 1 7-4 6-8 4-20 5-12 6-3 4 9 3 12 3 26-6h4l2-9 4-13h1l-1 15-3 22-4 15-5 8-6 3-25 4-22 2-10 2h-6v-5l1 4h4v-2l45-6 12-17 7-10 4-10-25 6-10-1-17-4-3 8-2 12h-1v-14l6-12 8-7 11-4 19-5 7-4 2-6z" fill="#F8F9F8"/>
<path transform="translate(1061,454)" d="m0 0 7 6 3 3 12 1-1 6-4 6-3 2h-7l-8 7-3 3-21 1-8 11h-27l-6-2h-5l-1-5 1-1h7l10 6h9l10-7 14-12 10-9 7-6 2-8h2z" fill="#319443"/>
<path transform="translate(656,179)" d="m0 0h8l8 22 3 8 12-25 2-3h6l2 1v40h-6l-1-29-10 21-4 7-5-1-3-7-7-23-4 30h-6l1-14 3-24z" fill="#070E0B"/>
<path transform="translate(597,511)" d="m0 0 4 1v12l-4 2h-3v2l-6 5-2 3v10l4 6 8 7 4 3v11l-16-8-8-7-5-6-2-8 1-10 5-9 10-9z" fill="#F7F7F7"/>
<path transform="translate(1071,585)" d="m0 0h2l3 10 8 9-1 4-10 12-16 28-4 6-7-6-2-3 6-9 8-11 2-4 3-28z" fill="#2F9341"/>
<path transform="translate(1032,277)" d="m0 0h24l3 3 2 3 2 5-1 5-2-1v-4l-3-1-2 4-10 2-3 3-3 6-8-1-4 4-6 12-4 2-1-1v-25l4-6 6-7z" fill="#48A058"/>
<path transform="translate(149,585)" d="m0 0 4 2 6 6 1 6 1 19 4 8 3 3 2 5 8 11-6 7-3 2-8-13-10-18-9-11-4-5 1-4 8-10z" fill="#2E9240"/>
<path transform="translate(906,462)" d="m0 0 35 4 3 1-1 6-13-1-15-2 12 8 12 9-1 5-9 2-19 3 25 8-1 6-7-1-29-10-1-3 2-5 17-3 13-2-25-17 1-7z" fill="#08120E"/>
<path transform="translate(1008,644)" d="m0 0h7l3 2h-2l-2 6h5l-2 3-13 2-7 2-2 4-8 4-14 10-5 2-6 5h-3v2l-3-1-3-17 1-5 13-1 8-1v-2l24-11z" fill="#12733B"/>
<path transform="translate(873,211)" d="m0 0h7l13 4 5 4 1 2v9l-5 5-4 2 2 3 1 16-3 1-4-2-1-14-3-4-8-2-2 11-2 5-6-1 1-8 7-29z" fill="#08100E"/>
<path transform="translate(589,361)" d="m0 0h3v4l-6 5-3 1-5 5h-2l-2 4-11 9-14 12-13 11-10 8-14 12-17 14-4 3h-2l-2 4-11 9-14 12-11 9-13 11-7 6h-3l-2 4-5 2-2 4-11 9-14 12-4 1-2 4-12 10-3-1v-2h2v-2h2v-2h2v-2l5-2 1-2h2v-2h2v-2h2v-2l5-2 1-2h2v-2h2v-2h2v-2h4v-2h2v-2h2v-2h2v-2h2v-2h4v-2h2v-2h2v-2h2v-2h2v-2h4v-2h2v-2h2v-2h2v-2h2v-2h4v-2l4-4h2v-2h2v-2h4l2-4h2v-2h2v-2h2v-2h2v-2l5-2 1-2h2v-2h2v-2h2v-2h4v-2h2v-2h2v-2h2v-2h2v-2h2v-2l6-2v-2h2v-2h2v-2l3-2h3v-2h2v-2h2v-2h2v-2h2v-2l6-2v-2h2v-2h2v-2h2v-2l5-2 1-2h2v-2h2v-2h2v-2h4v-2h2v-2h2v-2h2v-2h2v-2h4v-2h2v-2h2v-2h2v-2h2v-2h2v-2h4v-2h2v-2h2v-2h2v-2h2v-2h4v-2h2v-2h2v-2h2v-2h2z" fill="#E8E2BB"/>
<path transform="translate(840,879)" d="m0 0h15l1 1v42l-4 6-8 4h-4l-1-22h-1l-1-15h2l-1-8-1-6z" fill="#2D2C5E"/>
<path transform="translate(882,428)" d="m0 0m-2 1 2 1v3l-7 6h-2v2h-2v2l-8 6h-2v2h-2v2l-9 7-3 1v2h-2v2l-8 6h-2v2h-2v2l-8 6h-2v2h-2v2l-8 6h-2v2h-2v2l-10 8h-2v2h-2v2l-8 6h-2v2l-10 8h-2v2h-2v2l-10 8h-2v2l-10 8h-2v2l-10 8h-2v2h-2v2l-8 6h-2v2h-2v2l-8 6h-2v2h-2v2l-12 8h-2l2-4 14-12 17-14 15-13 17-14 14-12 11-9 14-12 11-9 14-12 13-11 14-11 11-10 11-9z" fill="#DFDEDA"/>
<path transform="translate(261,142)" d="m0 0h10l2 10 1 3-7 17-2 11-9 6-10 6h-2l3-11 4-11-2-17 7-8z" fill="#2C8E3F"/>
<path transform="translate(370,879)" d="m0 0h14l4 1-1 7-1 3-2 42-6-1-6-4-2-4-2-31v-9z" fill="#292B5B"/>
<path transform="translate(206,644)" d="m0 0h7l16 7 20 10 19 2 1 1-1 11-2 10-7-4-3-4v-2l-9-1-17-10-8-3v-2l-4-1v-2l-16-2v-1l11-1-5-3z" fill="#0D7037"/>
<path transform="translate(449,925)" d="m0 0h10l8 2v2h8v2h6v2h6v2h6v2h4v2h6v2h4v2h4v2h4v2h4v2h6v2h4v2h4v2h4v2h4v2h6v2l10 2v2h6v2h6v2h6v2h6l10 2v2h12v2h20v-2h12v-2h8v-2h6v-2h8v-2h6v-2h6v-2h4v-2l6-2h4v-2l6-2h4v-2h4v-2h4v-2h4v-2h4v-2h4v-2l6-2h4v-2h4v-2l6-2h6v-2l6-2h6v-2h6v-2h10l-2 2-21 6-24 9-16 8-8 3-10 5-14 5-12 5-26 7-12 2h-19l-20-4-21-6-28-11-29-14-24-9-21-6-11-3z" fill="#E7E1B9"/>
<path transform="translate(309,340)" d="m0 0h4v7l-10 7-20 13 19-1h13v5l-16 2-23 2h-6l-1-6 11-8 15-10 5-3h-12l-19 1-1-1v-5l1-1z" fill="#08120E"/>
<path transform="translate(926,341)" d="m0 0h8l5 5h2l5-3 8-2h5v6l-15 5-2 5v5l14 1 2 1-1 6-20-1-14-1-4-1v-15l3-8z" fill="#08120D"/>
<path transform="translate(521,845)" d="m0 0 4 1 1 1-1 8-8 27v2l21-21 4 1v4l-30 30-4-2-1-5 8-27 2-7-8 8-8 7-3 1v2l-6 4-3-3 2-4 13-12 12-11z" fill="#080F0F"/>
<path transform="translate(395,661)" d="m0 0h3l1 7-20 30 14-8 14-7h2l2 5-39 21h-2l-2-6 11-17 8-12 1-2-28 14h-2l-2-5 19-10z" fill="#08110E"/>
<path transform="translate(354,567)" d="m0 0h4l1 7-7 7-9 11-8 9 29-11 3 1v5l-39 15-4-1-1-5 13-15 9-10 3-4-30 11h-2l-1-6z" fill="#08110F"/>
<path transform="translate(463,187)" d="m0 0h11l6 3 3 3 1 8-3 6-8 5-10 1 2 11-1 5h-6l-5-36 1-4z" fill="#08110F"/>
<path transform="translate(263,127)" d="m0 0h9l3 8-1 5-14 1-11 12-1 1 1 20-7 19-2-2-5-24-1-9 8-10 9-10 8-10z" fill="#2B8F3E"/>
<path transform="translate(1150,131)" d="m0 0 3 1 5 5 5 4v2l4 2 10 8 2 3h-18l-5 2h-3l-2 5-6-1-13-6-3-1v-7l1-5 15-1 2-5z" fill="#0D7037"/>
<path transform="translate(951,127)" d="m0 0h8l5 2 9 11 11 12 4 5-2 16-4 18-2 2-7-19 1-20-9-9-3-4-12-1-1-5z" fill="#2A8F3D"/>
<path transform="translate(483,816)" d="m0 0h7l6 4 1 2v9l-6 9-9 6-9 1-5-3-3-4-1-5 3-8 9-8z" fill="#9C9C9B"/>
<path transform="translate(71,131)" d="m0 0 4 5 2 6 15 1 1 5v7l-10 4-8 4h-4v-6l-11-2h-9l-9 2 5-6 11-9 11-10z" fill="#0D7137"/>
<path transform="translate(381,206)" d="m0 0h9l6 4 3 5 1 4v8l-3 6-6 4-7 1-7-3-4-5-2-7 1-9 5-6z" fill="#9C9C9B"/>
<path transform="translate(951,142)" d="m0 0h10l12 13-2 17 7 21-1 2-7-4-8-4-4-6-2-12-5-12 1-3 5 3-6-13z" fill="#359447"/>
<path transform="translate(482,810)" d="m0 0h7l7 3 5 5 2 4v11l-6 10-9 7-7 3h-8l-8-4-5-6-2-6 1-8 5-8 8-7zm1 6-10 5-7 8-2 8 3 6 3 3 9 1 10-5 6-7 2-4v-9l-5-5-2-1z" fill="#070F0C"/>
<path transform="translate(166,279)" d="m0 0h29l5 5 1 7h2v26l-3-3-7-12-10-1-4-8v-2l-13-1-1-10z" fill="#27903A"/>
<path transform="translate(562,179)" d="m0 0h8l10 22 6 15v3h-7l-4-10v-2l-16 1-3 11-4 2-3-1 2-10 10-29z" fill="#08100E"/>
<path transform="translate(380,201)" d="m0 0h13l6 3 5 6 3 9v7l-4 9-6 5-9 3h-7l-8-3-6-7-3-9 1-10 4-6 8-6zm1 5-6 4-3 4-1 9 3 8 5 5 5 2 7-1 6-4 3-6v-8l-3-7-5-5-2-1z" fill="#070E0C"/>
<path transform="translate(403,126)" d="m0 0h13l4 3v5l-7 2-8 1-1-3-2 4h-3l-1-3-2 4h-3l-1-3-2 5-4 1-1-4-3 6h-3l-1-3-2 6-3 1-1-6-3 9h-2l-2-6-1 9-8 7h-6l1-9 7-8 11-7 11-5 17-5z" fill="#FDFDFD"/>
<path transform="translate(232,621)" d="m0 0 2 1v20l-3 5-5 1-7-4-10-3-25 3 2-6 8-8 4-1 19-1 10-2 3-3h2z" fill="#096D35"/>
<path transform="translate(581,261)" d="m0 0h2l4 13v2h18v2l-7 4-5 4h-2l5 15v2l-4-2-9-6-5 2-8 6h-2l3-11 1-5-13-10v-1h18l2-9z" fill="#EEEFEF"/>
<path transform="translate(809,126)" d="m0 0h12l17 4 16 6 10 6 9 9 2 9-1 1-7-1-6-5-2-11-1 7-3-1-2-7-1 4-4-1-2-6-1 4-4-1-1-6-2 5-4-2-1-3-1 2h-4l-1-5-1 4-4-1-1-4h-2l-1 4-13-2-1-5 3-3z" fill="#FDFDFD"/>
<path transform="translate(649,261)" d="m0 0h2l4 12v3h18v2l-11 7-2 3 4 12v3l-4-2-8-6-5 1-9 7-2-1 5-16-4-2-9-6 1-2h16l3-12z" fill="#EFEFEF"/>
<path transform="translate(838,203)" d="m0 0 9 1 6 37v6l-6-1-2-8v-6l-12-2-4-1-2 5-4 6-7-1 6-11 15-23z" fill="#070D0C"/>
<path transform="translate(444,284)" d="m0 0 2 2 4 13 17 1-5 5-7 5 1 7 2 10-9-6-5-3-13 9-1-2 4-12-1-4-11-8v-1h17l3-11z" fill="#F3F3F3"/>
<path transform="translate(1080,568)" d="m0 0 3 1 9 13 4 8-1 7v14l2 8-10 1h-10l2-4 8-10-6-8-5-6-2-12z" fill="#38974A"/>
<path transform="translate(510,266)" d="m0 0 2 1 4 13v2h17l-5 5-7 5 1 7 2 9-5-2-8-6-11 7-3 2 1-7 2-6-1-5-10-7v-2l16-1z" fill="#F0F0EF"/>
<path transform="translate(383,312)" d="m0 0 2 1 4 13v2h17l-5 5-7 5 1 7 2 9-4-2-8-6-5 2-8 6h-2l2-9 1-7-12-9v-1l17-1z" fill="#F4F4F3"/>
<path transform="translate(1102,622)" d="m0 0h7l9 3 11 8 8 8 10 16 6 13-1 4-5-1-10-17-11-17-3-1-12 2h-7l-3-3-1-5v-8z" fill="#349346"/>
<path transform="translate(986,620)" d="m0 0 4 2 5 2 2 4 4 1 26 1 10 11v2h-8l-18-2-12 5-5 3-3-1-4-7v-19z" fill="#13733C"/>
<path transform="translate(838,311)" d="m0 0h2l4 12v3h18l-4 4-8 6h-2l5 14-1 3-11-8v-2h-4l-1 3h-3l-1 3h-3v2l-4 2 3-11 1-6-11-8-1-2h17l2-9z" fill="#F6F6F5"/>
<path transform="translate(320,523)" d="m0 0h15l8 5 4 5 3 9v6l-6 1-1-9-5-8-4-2h-12l-8 4-4 4-1 3v7l2 6 7-1 6-1-2-5v-4l5-1 3 8 1 6-18 6-5-1-5-10-1-4v-7l3-7 5-5 7-4z" fill="#08110D"/>
<path transform="translate(347,209)" d="m0 0 3 3 8 33v4l-6 1-3-9-1-9-18 5h-3l4 14v5l-6 1-7-24-3-12 1-4 5-1 3 9 1 7 19-5h2l-4-16z" fill="#08100D"/>
<path transform="translate(778,282)" d="m0 0h2l4 13v3h16v2l-11 8 4 16-4-2-9-6h-5v2l-8 6h-2l3-11 1-5-11-8v-2h16l1-7z" fill="#F3F3F3"/>
<path transform="translate(718,267)" d="m0 0h2l4 13v3h16v2l-4 3h-3v2l-4 3 3 11 1 5-5-2-8-6-5 2-4 1-1 3-5 2 3-11 1-5-10-8-1-2h16l1-7z" fill="#F4F4F4"/>
<path transform="translate(119,621)" d="m0 0h3v12l-1 4h-22l-4 4-10 16-5 7-4 8-2 2-4-1 1-7 10-19 11-14 7-6 10-4z" fill="#369547"/>
<path transform="translate(930,403)" d="m0 0 9 1 6 4 3 5v8l-4 6-5 3h-11l-8-5-2-4v-9l4-6z" fill="#9C9C9B"/>
<path transform="translate(926,397)" d="m0 0h13l8 4 5 8 1 3v8l-3 9-8 7-3 1h-10l-8-3-6-7-2-5v-10l3-8 7-6zm4 6-8 3-4 6v9l4 6 6 3h11l6-4 3-5v-8l-4-6-5-3z" fill="#080F0D"/>
<path transform="translate(956,277)" d="m0 0h3v7l-11 5v14l12 6v5l-3 1-35-14-1-1v-7l10-5 23-10z" fill="#08110D"/>
<path transform="translate(873,604)" d="m0 0 10 1 6 4 3 4 1 9-4 7-4 2h-11l-8-5-3-5v-7l3-6 4-3z" fill="#9C9C9B"/>
<path transform="translate(433,891)" d="m0 0h5l3 4v24l21 4-3 2h-8l-2-1-10-1v-2h-11l-1-1-8-1v-2h-4v-2h-2l-2-4v-6h2v-2h2v-2l16-1 6-1v-6h-4z" fill="#FBDE2D"/>
<path transform="translate(745,801)" d="m0 0 11 3 26 8 3 3-4 4-12-3-8 9 1 6 3 5-1 4-4 2-15-28-4-8z" fill="#070F0C"/>
<path transform="translate(140,568)" d="m0 0h2l6 12-2 12-9 11-1 4 10 12v1h-11l-10-1 3-9v-8l-1-1v-10l9-15z" fill="#2F9241"/>
<path transform="translate(806,716)" d="m0 0 21 3 19 3-1 5-4 2-11-2-2 5-4 8 7 9-3 5-3-1-10-14-12-16 1-5z" fill="#08100E"/>
<path transform="translate(868,745)" d="m0 0 4 5 11 7 16 1h26l21-1 7-2-2 4-16 13-9 11-8 10-7 9h-2l-2 5-5 5-12 14-8 11-10 11-1 2 2 1-13 2-10 5-9 5h-1l1-7 7-10 5-5 3-13h1v8l-4 10-5 4-4 8 7-2 1-3 16-4 4-6 12-14 1-2h2l2-4 4-6 4-4 6-8 5-5 5-7 5-5 9-11 6-8 6-5 5-3 1-2-2 1-19 1h-25l-3-1h-13l-7-4-8-5-1 4-1-3z" fill="#F1F1F1"/>
<path transform="translate(838,302)" d="m0 0h2l5 15 1 6h23l-2 4-14 10 1 8 4 12v2l-5-2-10-7-2-1v-2l-9 5-11 8-1-2 3-11 2-7-2-5-4-2v-2l-5-2-5-4v-2h23l3-12zm0 9-4 12v3h-17l5 5 7 5-1 6-3 11 4-2v-2l4-1v-2l4-1v-2h4v2l11 8 1-3-5-14 4-2 10-7v-1h-18l-1-6-3-9z" fill="#070B0A"/>
<path transform="translate(778,273)" d="m0 0 2 1 6 18v3h23v2l-6 4h-2v2l-6 4h-2l2 12 3 9v3l-5-2v-2h-4l-5-5-3-2-5 1-5 2v2l-9 6h-2l1-7 3-7 1-9-17-12v-1h23l3-10zm0 9-4 12v4h-16v2l11 8-3 11-1 5 4-2 6-4v-2l7 1 9 7h2l-3-11-1-5 11-8v-2h-16l-2-10-2-6z" fill="#07100B"/>
<path transform="translate(841,654)" d="m0 0 4 2-6 12-1 8 3 7 6 4 8 1 6-3 5-7 1-6-8-3-4 6-4-2 6-13 6 2 11 6-1 8-5 10-4 5-7 4h-10l-8-4-5-6-2-5v-10l4-10z" fill="#091111"/>
<path transform="translate(597,413)" d="m0 0h2l1 32-1 2h-5l-12-5-5-5v-12l5-6 9-4z" fill="#29235D"/>
<path transform="translate(383,304)" d="m0 0 2 1 5 16 1 4h24l-4 4-14 10 1 7 4 12 1 4-5-3-7-4-5-5-3-1-16 12h-2v-5l3-7 2-10-17-13v-1l23-1zm0 8-5 15-17 1 5 5 7 5-1 7-2 9 4-2 9-6 4 2 8 6h2l-2-9-1-7 12-9v-1h-17l-3-11-2-5z" fill="#090B0B"/>
<path transform="translate(510,258)" d="m0 0 2 1 4 13 2 6 23 1v2l-13 9-4 3 1 7 4 11-1 4-7-4v-2l-5-2-4-3-4 1-14 10h-2l2-9 3-9-1-5-3-1-5-5-8-5v-2l23-1zm0 8-5 15-16 1v2l11 8-1 7-2 6 1 4 12-9 7 4 5 4h2l-2-9-1-7 12-9v-1h-17l-3-11-2-5z" fill="#0B0F12"/>
<path transform="translate(444,275)" d="m0 0 2 3 4 13 1 1v5h24l-5 5-12 9 1 8 4 12v2l-5-2-13-10-7 4-11 8-2-1 6-18v-3l-10-7-7-5v-2h23l3-11zm0 9-5 14v2h-17l5 5 7 5-2 9-2 8 7-4 7-5 11 7 3 2-2-10-1-7 12-9v-1l-17-1-5-15z" fill="#080A0C"/>
<path transform="translate(419,705)" d="m0 0 4 2 8 14v4l-5 1-7-12-5 2-6 4 7 11-2 4-4-1-6-10-4 1-9 5 6 11 2 5-5 2-10-16-2-4 5-4 25-14z" fill="#08110F"/>
<path transform="translate(1139,116)" d="m0 0 19 1 6 3 4 6 7 8 9 18-1 4-6-5v-2l-5-2-7-6v-2h-2v-2l-4-2-8-7-5 2-2-5-3-1v-6z" fill="#1C7942"/>
<path transform="translate(786,895)" d="m0 0 1 2h2v2h2v2h18v2h4v12l-8 4h-8v2h-10v2h-13l1-2 9-2 1-22z" fill="#FBDE28"/>
<path transform="translate(108,531)" d="m0 0h3l3 6-4 1 3 3-2 4h-2v2l-12 4-8 2h-15l-2-4v-9l20-2z" fill="#0B6F36"/>
<path transform="translate(312,391)" d="m0 0h5l1 1 2 16v5h-5l-1-1-1-7v-8l-11 2h-3l1 2 1 13-1 1h-5l-2-14h-15l2 12v6l-5 1-2-10-1-14 13-2z" fill="#080F0E"/>
<path transform="translate(649,253)" d="m0 0h2l7 20 23 1-4 4-13 9 1 8 4 12v3l-4-1v-2h-4v-3l-4-2-6-4-5 2-13 10h-2l3-11 4-12-5-2-13-10v-1h23l2-9zm0 8-4 13v2h-16l-1 2 11 8h2l-5 17 5-2 8-6 4 1 9 7h2l-2-9-2-7 11-8 2-1v-2h-18l-2-9-2-6z" fill="#070A0B"/>
<path transform="translate(581,253)" d="m0 0h2l6 18v3h24l-5 4-12 9 1 7 4 13-1 3-17-12-5 2-14 10-1-2 6-18-2-4-6-3-9-9 22-1zm0 8-4 12v3h-18l5 5 8 6-3 11-1 5 4-2 9-6 5 2 8 6h2l-3-11-2-6 5-2 6-5 3-1v-2h-18l-3-12-1-3z" fill="#0A0C0E"/>
<path transform="translate(107,505)" d="m0 0h2l-1 6 2 5-2 1 1 3 4 2 1 3-13 7-9 5-7 1h-9l1-4 20-20 8-7z" fill="#11713A"/>
<path transform="translate(428,192)" d="m0 0h10l1 4-2 2h-9l-5 3v5l2 2 15 4 5 5v9l-4 5-7 3-11 1-4-1v-5h11l7-3 1-5-2-3-15-4-5-4-1-2v-7l5-6z" fill="#08110E"/>
<path transform="translate(281,292)" d="m0 0h15l9 4 6 7 2 5v11l-2 4-5-1 1-10-3-8-6-4-3-1h-11l-8 4-3 4v16l-5 1-2-5v-13l5-8 5-4z" fill="#070D0C"/>
<path transform="translate(458,775)" d="m0 0h6l6 4 4 5 1 6-5 2-4-9-7-1-3 3v20l-4 5-6 3-8-1-8-7-3-9 2-2h4l4 10 3 2 7-1 2-3v-20l5-5z" fill="#080D0D"/>
<path transform="translate(615,472)" d="m0 0 12 2 7 3 4 4 1 4-4 6-7 6-7 4-5 1-1-3z" fill="#29235D"/>
<path transform="translate(713,839)" d="m0 0h3l1 4-8 7-1 7h8l8-4h9l5 4 1 2v7l-4 7-8 7-5 1-1-4 8-6 3-4v-7h-7l-9 4h-9l-5-5v-8l4-6z" fill="#091111"/>
<path transform="translate(500,959)" d="m0 0 4 1 8 4 4 5 1 2-1 9-4 5-2 1h-7l-10-5 2-9z" fill="#DEDEDD"/>
<path transform="translate(543,979)" d="m0 0 7 1 6 3 4 5v7l-3 6-5 4h-8l-8-4 3-10z" fill="#DEDEDE"/>
<path transform="translate(836,88)" d="m0 0 4 1-1 4-8 6-8 10-8 14-2 1h-7l-2-4 1-6 7-10 9-9 10-6z" fill="#FDFDFD"/>
<path transform="translate(538,180)" d="m0 0h7l1 5-1 1h-13l2 27v8l-1 1h-5l-1-2-2-26v-7l-14 1v-5l1-1z" fill="#091210"/>
<path transform="translate(789,193)" d="m0 0 15 2 19 4-1 5-14-2-2 14-4 20-7-1 5-31 1-4-10-1-3-1z" fill="#08110F"/>
<path transform="translate(409,931)" d="m0 0h1l1 22 3 10 6 5 6 3 17 3 21 6 19 7 9 4 19 10 8 6 24 11 8 3 16 5v2l2 1-10-2-18-6-24-12v-2l-6-2v-2l-4-1-15-8-9-3v-2l-5-1-23-8-16-4-16-3-9-6-4-2v-6h-13v-1l11-1 1-6-4-1h4z" fill="#C6C4BC"/>
<path transform="translate(477,455)" d="m0 0h5l-1 3-11 9-14 12-11 9-13 11-4 1-2 4-5 2-2 4-11 9-14 12-4 1-2 4-12 10-3-1v-2h2v-2h2v-2h2v-2l5-2 1-2h2v-2h2v-2h2v-2l5-2 1-2h2v-2h2v-2h2v-2h4v-2h2v-2h2v-2h2v-2h2v-2h4v-2h2v-2h2v-2h2v-2h2v-2h4v-2h2v-2h2v-2h2v-2h2v-2h4v-2l4-4h2v-2h2v-2h4l2-4h2v-2h2v-2h2v-2h2v-2l5-2 1-2h2v-2h2v-2h2z" fill="#E7E3C5"/>
<path transform="translate(369,903)" d="m0 0h1l1 20 3 5 10 4v-20h1l2 21 2 9 5 6 15 3v6l-1 1h-14l-5-4-2-3-1-9-9-2-6-5-2-4z" fill="#BFBFBD"/>
<path transform="translate(992,726)" d="m0 0 1 3-4 5-4 3v10h2l1-4 1 4 2 1-6 5v-3h-3l-1 7 2 10v4l-4 3h-4l-3-6v-10l3-19h2l1-3 6-3z" fill="#0C7036"/>
<path transform="translate(299,740)" d="m0 0 2 3 1 2h17l18-1h12l7 3-1 5-6 9h-2l-2 4-8 6-4 10-2 4v-6l3-10 2-2h3l-1-3h2l1-3h-41l-21-1-2-2h51l11-1 11-8h2l-1-2h-51l-1-1z" fill="#FDFDFD"/>
<path transform="translate(1022,749)" d="m0 0 2 3 6 19 1 7 3 9 7 11 8 10v3h-8l-5-3-5-7-4-12-4-23z" fill="#399549"/>
<path transform="translate(757,940)" d="m0 0h6l5 5 4 9v7l-2 3-7 2-5-3-4-5-2-5v-8z" fill="#E0E0E0"/>
<path transform="translate(738,949)" d="m0 0h8l5 6 2 6v7l-4 5-7 1-6-5-3-8 1-8z" fill="#DFDFDF"/>
<path transform="translate(784,749)" d="m0 0h2l10 23 12 9-1 4-1 2-4-1-9-7-27-3 3-6 20 1-7-15 1-5z" fill="#08100D"/>
<path transform="translate(320,431)" d="m0 0h3l1 6-39 7 2 12v5l-5 1-4-19v-5l16-3z" fill="#09130F"/>
<path transform="translate(260,609)" d="m0 0 13 1 4 7v3l-2 1h-40l2-4h2l1-3 13-4z" fill="#14743A"/>
<path transform="translate(441,739)" d="m0 0 4 4-5 5-23 15-5 2 5 9 4 5-2 4-4-1-11-16 1-4 18-11z" fill="#08100E"/>
<path transform="translate(229,728)" d="m0 0h5l11 9v2h2l3 19v10l-1 2h-2l-3-4-2 1-1-7-1-3-2-2-1-3v-9h-2v-4h-2l-1 2-1-4h2v-6h-5z" fill="#0D7037"/>
<path transform="translate(89,663)" d="m0 0h3l1 35 2 5v10l7-3 10-7 1-4v-15h1l1 5v17l-5 13-3 4-7 1-5-5-3-6-2-14v-31h-3l1-4z" fill="#F9F9F9"/>
<path transform="translate(735,186)" d="m0 0h6l1 5-3 25v5l15 2 2 1v5l-25-3 1-18 2-18z" fill="#09130F"/>
<path transform="translate(1052,663)" d="m0 0h1v10l-13 3h-2l-3 16-10 19-6 14 1 10h-1l-2-9-5-1 1-2h4l2-6 10-21 3-5 1-8-11 13-3 4-12 1-10 10-5 4-1 12-5 4-2-1 4-4 1-13h2v-2l10-8 5-5 12-1 13-17 6-7 14-2v-7z" fill="#FBFBFB"/>
<path transform="translate(598,178)" d="m0 0h5l1 4v32h19l-1 5h-25v-40z" fill="#08110F"/>
<path transform="translate(533,80)" d="m0 0 3 1v6l-8 4-22 9-12 5h-2v-8l5-3 23-9z" fill="#FDFDFD"/>
<path transform="translate(689,80)" d="m0 0 10 3 29 11 4 3v8l-9-3-21-9-13-5z" fill="#FDFDFD"/>
<path transform="translate(757,927)" d="m0 0h10l-2 2-21 6-24 9-16 8-8 3-10 5-14 5-12 5-26 7-5 1h-12v-1h6v-2h12v-2h8v-2h6v-2h8v-2h6v-2h6v-2h4v-2l6-2h4v-2l6-2h4v-2h4v-2h4v-2h4v-2h4v-2h4v-2l6-2h4v-2h4v-2l6-2h6v-2l6-2h6v-2h6z" fill="#DBD5AF"/>
<path transform="translate(1129,663)" d="m0 0h1v50l-2 4h-2l-2 5-1-3 2-6v-2h-2v-2l-3-1-1-2v-6l2-5 4-24 4-1z" fill="#096D36"/>
<path transform="translate(1054,528)" d="m0 0 1 3-12 20-12 18-10 16-1 14-9 8h-2l2 4 3 3-5-2-5-5 1-17 1-7h1v12l-1 2h11v-11l7-12 14-22 13-20z" fill="#FBFBFB"/>
<path transform="translate(197,764)" d="m0 0h1l-1 16-5 21-2 4-5 2v2l-8 2h-5l4-7 13-18z" fill="#329344"/>
<path transform="translate(951,142)" d="m0 0h10l5 6-1 5h-2l4 8v2h-2v2h2v2h-2v8h-2l1 5-3-1-2-9-1-4h-3l-4-9 1-3 5 3-6-13z" fill="#11703A"/>
<path transform="translate(855,927)" d="m0 0 1 2-3 8-6 4-7 1-1 8-4 6-6 3h-10l-2-1v-6l10-1-1-2 7-3 3-3 2-10 10-1z" fill="#C3C2B7"/>
<path transform="translate(639,696)" d="m0 0 11 2 11 3 4 7v8h-9l-5-3-2-4-12-3 2-4z" fill="#FDFDFD"/>
<path transform="translate(602,995)" d="m0 0h8l4 4 1 3v8l-3 5-2 1h-9l-3-3-1-3v-9l3-5z" fill="#EAEAE9"/>
<path transform="translate(339,108)" d="m0 0 2 1-6 7-4 10-2 16-5 14v5l6-4 5 1-1 5-5 4-1 2 2-1h9l2 2-8 2-9-1-3-3-1-9 3-12 2-5 1-16 4-10 4-4z" fill="#C4C4C3"/>
<path transform="translate(70,128)" d="m0 0h3l6 11 15 2 2 13 1 3-9 2-13 7h-2l-1-3 17-8h4l-1-12h-11l-4-1-5-9h-3l-13 12-11 9-1 2 7-2h9l9 2 2 1-1 3-3-2-5-1h-12l-9 3h-3l-1-5 4-1 7-7 11-9z" fill="#FBFBFB"/>
<path transform="translate(770,522)" d="m0 0m-2 1 2 1-4 4v3l-5 4h-2v2l-10 8h-2v2l-10 8h-2v2h-2v2l-8 6h-2v2h-2v2l-8 6h-2v2h-2v2l-12 8h-2l2-4 14-12 17-14 15-13 17-14z" fill="#DDDCD8"/>
<path transform="translate(1111,534)" d="m0 0 16 6 7 2 13 1 1 1v6l-1 1h-11l-14-3-9-4v-3l-4-1v-3h2z" fill="#066B34"/>
<path transform="translate(852,873)" d="m0 0 5 1 1 16-1 41-3 5v-3l1-5-7 5h-8l-1 2v-38h1v35l11-4 4-6v-42h-15l-2 1 1 6 1 9-11 1-6-1v-1h12v-2h2v-4h-2v-10h2v-3l9-2z" fill="#E1DDBF"/>
<path transform="translate(614,763)" d="m0 0 3 1v14l-2 31-1 6h-2l-2-18-1-14v-19z" fill="#EAEAE9"/>
<path transform="translate(374,610)" d="m0 0h2l1 5-8 9-11 7-10 4-4 1h-17l-2-2v-3l17-1 12-4 11-6 8-8z" fill="#0A1812"/>
<path transform="translate(315,497)" d="m0 0h17l7 3v4l-7-1h-14l-13 3-13 7-4 4h-2l-1-4 5-5 9-6 11-4z" fill="#0A1313"/>
<path transform="translate(572,66)" d="m0 0 13 3v2l-33 11-5 2h-3v-7l8-4z" fill="#FDFDFD"/>
<path transform="translate(599,527)" d="m0 0h2l1 30-5-1-4-3v-2h-2l-4-8 1-5 5-7h2v-2z" fill="#29235D"/>
<path transform="translate(439,901)" d="m0 0h2v14l-2 4-10-2v-2h-8v-2h-4l-1-6 1-2 12-1 2-1h8z" fill="#9C9C9B"/>
<path transform="translate(71,131)" d="m0 0 4 5 1 4-2 3h-3v-2h-2l1 4-6 3-2 2-1 3 9 2-1 2-9-2h-9l-9 2 5-6 11-9 11-10z" fill="#2F8E42"/>
<path transform="translate(94,668)" d="m0 0 2 4 3 7 1 7 2 4v7h-2l1 7h2v-3h2l-1 4h-3l1 3-3 1-1 4h-3l-2-13-1-2v-16l1-11z" fill="#066B34"/>
<path transform="translate(615,569)" d="m0 0 11 2 14 6 8 7v2h-13l-12-5-8-3z" fill="#F2F2F2"/>
<path transform="translate(694,975)" d="m0 0 6 2 2 4-1 6-6 5h-3l4 10-4 1-4-8-3-7-2-5 1-4z" fill="#E4E4E3"/>
<path transform="translate(617,762)" d="m0 0h2v35l-1 3-1 15h-2l-1 5-3-1-2-6-1-14-1-2v-34h2l2 34 1 18h2l2-37z" fill="#08100F"/>
<path transform="translate(772,191)" d="m0 0h6l1 3-5 34-1 3h-6l-1-2 5-34z" fill="#091210"/>
<path transform="translate(785,901)" d="m0 0h2v2l20 2v2h2v4h-2v2h-4v2h-6v2h-10v2h-2z" fill="#9C9C9B"/>
<path transform="translate(714,183)" d="m0 0 6 1v9l-3 30-1 1h-5l-1-1 1-17 2-20z" fill="#08110E"/>
<path transform="translate(221,627)" d="m0 0 4 1-3 4-17 1-2 1 2 2v3l4 2-25 3 2-6 8-8 4-1 19-1z" fill="#308E43"/>
<path transform="translate(495,184)" d="m0 0h6l2 15 2 25-6 1-1-2-3-28z" fill="#070C0B"/>
<path transform="translate(825,475)" d="m0 0 2 1-4 4-2 5-8 6h-2v2h-2v2l-10 8h-2v2h-2v2l-8 6h-2v2l-10 8h-2v2h-2v2l-4 3h-2l2-4 7-8 11-9 14-12 11-9 14-12z" fill="#E0DFD9"/>
<path transform="translate(61,401)" d="m0 0 5 2 11 6 27 1 8 32v6l-5 5 1-4v-8l-4-13-2-12-8-2-16-1-9-3-8-8z" fill="#FCFCFC"/>
<path transform="translate(477,949)" d="m0 0 5 1 5 18 5-13h3l-2 10-5 13-4-1-5-22-5 17-4-2z" fill="#DEDEDE"/>
<path transform="translate(571,989)" d="m0 0h7l2 4-1 9-6 7h-6l-3-4 1-9 4-6z" fill="#2B2C5B"/>
<path transform="translate(897,815)" d="m0 0v3l-10 12-6 8-9 10-1 2 2 1-13 2-10 5-9 5h-1l1-7 7-10 5-5 3-13h1v8l-4 10-5 4-4 8 7-2 1-3 16-4 4-6 12-14 1-2h2l2-4 5-5z" fill="#F2F2F2"/>
<path transform="translate(238,615)" d="m0 0 1 2-3 3 25 1v1l-11 1-3 1 1 4 6 10 1 1h10l11-1 7 9-1 2-6-8h-10l-13 2-6-11-4-7-6-1v18l-2 3h-2v-23l-6 5-2-1 7-7z" fill="#F5F8F6"/>
<path transform="translate(97,285)" d="m0 0 1 4v20l1 2 8-1v-13l2-3-2 44-2 2-2-10-8-20v-22z" fill="#FAFAFA"/>
<path transform="translate(542,713)" d="m0 0 4 1-4 5-5 4h-2v2l-10 8h-2v2h-2v2l-10 8h-2v2l-10 8h-2v2l-5 4h-2l2-4 6-7 11-9 15-13 11-9z" fill="#DFDED7"/>
<path transform="translate(99,636)" d="m0 0h23l-2 6-6 11-3 11-1 8h-1v-9l3-11 6-12h-19l-3 4-4 7-13 20-3 6 4 4-5-2-5-4 1-2 4-1 6-11 7-10 9-14z" fill="#FAFAFA"/>
<path transform="translate(528,973)" d="m0 0 5 1v25l-4-1v-8l-8-2-4 3h-3l2-5z" fill="#D7D7D7"/>
<path transform="translate(961,611)" d="m0 0h14l6 2 5 4-1 4h-25v-9z" fill="#137539"/>
<path transform="translate(725,247)" d="m0 0h2l-2 6-13 11-2 2h-3l-2 4-5 2-2 4-3 1-2 3h-4l-1 4-14 12-6 5h-2l-1-4h4v-2h2v-2h2v-2h2v-2l5-2 1-2h2v-2h2v-2h2v-2h2v-2h4v-2h2v-2h2v-2h2v-2h2v-2h4v-2h2v-2h2v-2h2v-2h2v-2l5-2 1-2h2v-2h2v-2h2z" fill="#E5E1C7"/>
<path transform="translate(572,986)" d="m0 0h6l4 2 2 4-1 9-1 3h-2l-1 4-4 1v2l-8 1-5-3-2-4 1-9 4-6 4-3zm-1 3-5 5-2 5v6l3 4h6l6-7 1-9-2-4z" fill="#E0E0E0"/>
<path transform="translate(807,899)" d="m0 0 5 1 3 3 1 3v22l-1 19h-1l-1-29-10 4-36 6-2-1v-2h8v-2l-4-1 18 1v-2h10v-2l10-2 5-2 1-12h-4v-2h-2z" fill="#DAD2A1"/>
<path transform="translate(503,963)" d="m0 0 5 2 5 4v7l-3 5-1 1h-8l-4-2 3-11z" fill="#282859"/>
<path transform="translate(546,983)" d="m0 0 5 1 5 3v8l-4 6-2 1-10-1 3-12z" fill="#29265B"/>
<path transform="translate(58,129)" d="m0 0 1 3 3 1 2-1-2 4-12 11-8 7-4 2 1-6 4-9 4-4h3v-2z" fill="#227D44"/>
<path transform="translate(464,192)" d="m0 0h8l5 5-1 7-4 3-9 1-2-7v-8z" fill="#9C9C9B"/>
<path transform="translate(589,754)" d="m0 0 6 3-2 5-6 7-9 15h-3l-1-4 5-12 8-13z" fill="#EFEFEE"/>
<path transform="translate(999,629)" d="m0 0 28 1 10 11v2h-8l-16-2v-1l6-1-1-4-1-2-17-1z" fill="#56A365"/>
<path transform="translate(676,982)" d="m0 0 3 1-1 3-5 2h-3l1 8 8-3 4 1-3 3-5 2 1 5 1 2 11-3v3l-7 4-6 1-2-1-4-12-4-9v-3z" fill="#E1E1E0"/>
<path transform="translate(716,259)" d="m0 0 2 2-6 18-17 1v-4l4-2 8-8 5-3z" fill="#2A285B"/>
<path transform="translate(455,941)" d="m0 0h4l-3 12-1 9v2l8-2 6-16h4l-3 11-4 8-3 2h-7l-5-3-1-2 1-9z" fill="#DEDEDE"/>
<path transform="translate(133,510)" d="m0 0 1 3-5 9-12 6-25 11-19 1 1-4 7-8 14-14 2 1-20 20-1 3 16-2 34-16h2l2-6z" fill="#FDFDFD"/>
<path transform="translate(878,217)" d="m0 0 9 1 5 4v7l-4 3h-7l-5-2 1-9z" fill="#9C9C9B"/>
<path transform="translate(951,127)" d="m0 0h8l5 2 2 3-1 7h2v2l-17-1-1-5z" fill="#076C34"/>
<path transform="translate(653,987)" d="m0 0 7 1v3l-7 1 1 5 3 2 7 2 4 4-1 9-4 2h-8l-1-4 9-1v-5l-12-6-3-4v-6z" fill="#ddd"/>
<path transform="translate(370,875)" d="m0 0h18l6 5 1 5v5h36v1l-14 1-2 1-16 1-2 1h-6l-4-2 2-6 1-7-3-2-17-1z" fill="#FBDE2C"/>
<path transform="translate(1119,515)" d="m0 0 5 1v2l4 2 11 11v2h2v2l-8-1-2-2-6-2-3-3-5-2 1-5z" fill="#066B34"/>
<path transform="translate(585,753)" d="m0 0h3l-2 5-8 14-3 10v2l4-2 5-10 6-8 4-5 4-1-2 4-5 7h-2v2h-2v4h-2v4h-2v4h-2v2h-2v2h-4v-2h-2l-1-6 3-10h2l1-4 3-6h2z" fill="#090811"/>
<path transform="translate(719,128)" d="m0 0h7l4 5-1 7-4 3h-6l-4-4v-7z" fill="#FDFDFD"/>
<path transform="translate(499,128)" d="m0 0h7l4 5-1 7-4 3h-6l-4-4v-7z" fill="#FDFDFD"/>
<path transform="translate(722,959)" d="m0 0 6 1 2 3v8l-3 9 7-4 3 1v2l-5 1v2l-4 2h-3v2l-4 1 1-7 3-7v-8l-5-1-4 4h-3l2-4 5-4z" fill="#E0E0DF"/>
<path transform="translate(542,110)" d="m0 0h6l4 3 1 6-3 5-2 1h-6l-4-4-1-4 3-6z" fill="#FDFDFD"/>
<path transform="translate(617,994)" d="m0 0h16l-2 10-4 8-3 9h-5l1-6 8-17-5 1h-7z" fill="#E7E7E7"/>
<path transform="translate(778,934)" d="m0 0h5v4h-8l1 7h8l5 5 1 7-2 4-9 1-2-1v-3l8-1-1-7-2-1-9-1-2-8v-4z" fill="#ddd"/>
<path transform="translate(370,873)" d="m0 0h9l5 1v1h-14v2h17l4 3-1 7-3 6 14 2v1h-14v15l-1 16h-1v-37l3-10-18-1-1 2-1-6z" fill="#E4DDB0"/>
<path transform="translate(677,110)" d="m0 0 7 1 3 4-1 7-4 3h-6l-4-4v-7z" fill="#FDFDFD"/>
<path transform="translate(89,663)" d="m0 0h3l1 35 2 5v10l4-1 3 8v4l-5-2-4-6-3-17v-31h-3l1-4z" fill="#3F964F"/>
<path transform="translate(923,709)" d="m0 0h13l2 4v19l10 1v1l-11-1-1-2-1-12-14-1v-6z" fill="#30814C"/>
<path transform="translate(90,655)" d="m0 0 4 4 1 4-2 19h-1v-19l-4 2-3 8-3 4-1 3-5-2-1-2 10-16h3z" fill="#117934"/>
<path transform="translate(648,260)" d="m0 0 3 1h-2l-2 9-2 6-16 1 12 9-2 11-4 1 3-11-5-2-13-10v-1h23l2-9 1-4z" fill="#09100E"/>
<path transform="translate(1141,385)" d="m0 0 11 1 7 1h7l-1 3-11 5-4 1h-8l1-5-2-1z" fill="#0A6F35"/>
<path transform="translate(929,347)" d="m0 0 5 1 3 4v10h-11l-2-1v-9z" fill="#9C9C9B"/>
<path transform="translate(260,609)" d="m0 0 13 1 4 7v3l-2 1h-13v-10l-12 2h-5l3-2z" fill="#80B291"/>
<path transform="translate(107,469)" d="m0 0h3v11l-15 2h-7l5-5 7-6z" fill="#2F9041"/>
<path transform="translate(589,361)" d="m0 0h3v4l-6 5-3 1-5 5h-2l-2 4-11 9-13 11h-1v-5h2v-2h4v-2h2v-2h2v-2h2v-2h2v-2h2v-2h4v-2h2v-2h2v-2h2v-2h2v-2h4v-2h2v-2h2v-2h2v-2h2z" fill="#E8E2BC"/>
<path transform="translate(868,745)" d="m0 0 4 5 11 7 16 1h45l-1 2-19 1h-25l-3-1h-13l-7-4-8-5-1 4-1-3z" fill="#FDFDFD"/>
<path transform="translate(835,877)" d="m0 0h2v2h-2v10h2v4h-2v2h-10v-2h-14v-2h-17v-2h19l8 1h10l1-10z" fill="#F9DE35"/>
<path transform="translate(740,952)" d="m0 0 4 1 2 4h2l1 3v9l-4 2-3-1-4-6-1-9z" fill="#292959"/>
<path transform="translate(758,943)" d="m0 0 4 1 3 2 3 9v6l-1 1h-5l-4-5-2-4v-8z" fill="#272558"/>
<path transform="translate(581,253)" d="m0 0h2l6 18v3h24l-5 4-9 7v-3l3-4h3v-2h-18l-3-9-1-6h-2l-1 6h-3l3-11z" fill="#0A0A0C"/>
<path transform="translate(83,143)" d="m0 0h9l1 5v7l-10 4-4 1-1-3 1-2h3l1-2h-4v-2h-2v-2l4 1 2 1v-4h-4v-2z" fill="#228B38"/>
<path transform="translate(1150,128)" d="m0 0 4 2 9 7v2h2v2l4 2 8 6 4 5h3l2 4-1 3-5-1-6-4 4-1-7-6-8-6v-2l-4-2-6-5-3-3-1 5-2-4z" fill="#EFEFEF"/>
<path transform="translate(449,925)" d="m0 0h10l8 2v2h8v2h6v2h6v2h6v2h4v2h6v2h4v2h4v2h2v2l-6-2-23-9-20-6-15-4z" fill="#E3DDB7"/>
<path transform="translate(1112,469)" d="m0 0 10 2 10 9v1h-14l-6-1z" fill="#2D903F"/>
<path transform="translate(1136,646)" d="m0 0 4 2 5 5 8 17-1 4h-4l-2-7-10-16-1-4z" fill="#277C49"/>
<path transform="translate(401,84)" d="m0 0 11 2 5 4 3 8v10h-2l-8-14-4-5-5-3z" fill="#FDFDFD"/>
<path transform="translate(439,938)" d="m0 0h7l5 1-1 3-9-1-1 6-1 2h7l2 2-1 2h-9l-4 10h-3l2-9 5-15z" fill="#DEDEDE"/>
<path transform="translate(266,128)" d="m0 0h5v2h2v9h-13l-1-1-3-1 1-4 4-4z" fill="#076C34"/>
<path transform="translate(973,658)" d="m0 0m-2 1h2v2l-6 2-13 1 1 9 2 12 2 1v-2l5-3 5-4 2 1-8 7-5 3-6 1-1-5h2l-3-21v-1l19-2z" fill="#E1E9E2"/>
<path transform="translate(598,690)" d="m0 0 4 4-2 5-11 2h-6l-2-3 1-4 5-2 9 1z" fill="#FDFDFD"/>
<path transform="translate(200,655)" d="m0 0h6v1l-11 3-1 1v7l9 10 8 7 19 13 6 4-2 1-16-10-16-12-9-9-3-5v-6l3-3z" fill="#FDFDFD"/>
<path transform="translate(855,879)" d="m0 0h2l1 3-1 49-3 5v-3l1-5-7 5h-8l-1 2v-38h1v35l11-4 4-6z" fill="#D7D6D3"/>
<path transform="translate(1084,806)" d="m0 0 5 2 14 2 1 2v6l-9-1-13-3 2-4-1-2z" fill="#0C6E38"/>
<path transform="translate(815,928)" d="m0 0h1v22h13l-2 2h-10v6l2 1-2 1-2 4-2-1v2h-2v2h-2v2l-8 4-8 2h-9l3-2 14-3 8-5 3-4 2-4z" fill="#D0CFCA"/>
<path transform="translate(387,946)" d="m0 0h2v2l4 1v2l16 1v5l-1 1h-14l-5-4-2-3z" fill="#DD1722"/>
<path transform="translate(352,751)" d="m0 0 3 1-6 9h-2l-2 4-8 6-4 10-2 4v-6l3-10 2-2h3l-1-3h2v-4l4-4z" fill="#559861"/>
<path transform="translate(477,455)" d="m0 0h5l-1 3-11 9-14 12-7 5-2-1v-2h2v-2h2v-2h4l2-4h2v-2h2v-2h2v-2h2v-2l5-2 1-2h2v-2h2v-2h2z" fill="#E8E3C0"/>
<path transform="translate(117,110)" d="m0 0 3 1 1 5 1 19 2 9 2 2 2 10v3l-7-6z" fill="#FDFDFD"/>
<path transform="translate(85,647)" d="m0 0 3 2-1 5-7 10-4 8-4 1 1-7h2l1-5 6-11z" fill="#0F7237"/>
<path transform="translate(349,847)" d="m0 0 2 1v2h-2v2l-16 4-14 3h-16l-12-2-3-2 13 1h22l8-1 1-3 16-3z" fill="#D1DAD2"/>
<path transform="translate(1080,530)" d="m0 0 13 7-2 1-10-4-1 29 2 5h-2l-2 6-4 7h-1l-1-7h2l3-12z" fill="#FDFDFD"/>
<path transform="translate(669,963)" d="m0 0h6l-4 3-21 7-21 5h-12v-1h6v-2h12v-2h8v-2h6v-2h8v-2h6v-2h6z" fill="#E2DBAE"/>
<path transform="translate(607,763)" d="m0 0h2l2 34 1 18 2 1-4-1-1-2-1-14-1-2z" fill="#080E0F"/>
<path transform="translate(409,931)" d="m0 0h1l1 22 3 10 6 5 6 3 13 2 2 2h-9l-9-2-9-6-4-2v-6h-13v-1l11-1 1-6-4-1h4z" fill="#D7D7D3"/>
<path transform="translate(911,695)" d="m0 0h8l2 4-1 11-2 3v-16l-6-1v30h11l2 1v6l-1-4-13-1-1-1v-29z" fill="#66A171"/>
<path transform="translate(837,945)" d="m0 0 2 1-4 8-4 3-4 1h-10v-6l14-2 4-1v-2h2z" fill="#E30714"/>
<path transform="translate(107,238)" d="m0 0m-1 1m-2 1h2l-2 5h-2v2l-8 7-4 4-15 1-4-8v-2h-2l1-7 2 3 4 9v2l12-1 8-7z" fill="#FDFDFD"/>
<path transform="translate(738,130)" d="m0 0 2 4-1 8-4 7-5 2-4-1 2-4 4-6 2-7h3z" fill="#FDFDFD"/>
<path transform="translate(76,386)" d="m0 0 5 1-1 6h2l-1 3-13-1-2-1-1-4 5-3z" fill="#096C35"/>
<path transform="translate(135,807)" d="m0 0h2v2l3 1-5 5-12 3h-3v-5l4-3z" fill="#066B34"/>
<path transform="translate(659,304)" d="m0 0h2v3l-4 1-2 4-4 1-2 4-14 11-6 3v-2l4-4h2v-2h2v-2h2v-2h4v-2h2v-2h2v-2h2v-2h2v-2h2v-2h4v-2z" fill="#E4DFBC"/>
<path transform="translate(782,974)" d="m0 0 4 2-28 8-15 6-6 2-2-2 22-9z" fill="#C6C4B7"/>
<path transform="translate(882,759)" d="m0 0 6 1h49v1l-24 3h-16l-10-1-5-2z" fill="#439251"/>
<path transform="translate(441,974)" d="m0 0 17 4 23 8 5 3 6 2-3 2-6-2v-2l-5-1-23-8-16-4z" fill="#C0BFB9"/>
<path transform="translate(567,1027)" d="m0 0 14 2 22 3 23 1-3 2h-21l-27-4-8-3z" fill="#D4D3D0"/>
<path transform="translate(682,103)" d="m0 0 6 1 4 2 6 1-3 1 2 3v12l-2-3h-2l-4-8-7-6z" fill="#FAFAFA"/>
<path transform="translate(856,828)" d="m0 0h1v8l-4 10-5 4-4 8 7-2 1-3 5-1-2 1v2l-11 7-4 1 1-7 7-10 5-5z" fill="#86B88F"/>
<path transform="translate(130,631)" d="m0 0h11l5 28 3 5 10 9h-3l-9-7-4-5-4-27-1-1-8-1z" fill="#FDFDFD"/>
<path transform="translate(566,186)" d="m0 0 2 4 5 12-5 1h-8l5-16z" fill="#9C9C9B"/>
<path transform="translate(270,144)" d="m0 0h1l2 8 1 3-7 17-2 11h-1l-1-12 9-17-5 3h-2l3-9z" fill="#FDFDFD"/>
<path transform="translate(807,899)" d="m0 0 5 1 3 3 1 3v22l-1 19h-1l-1-29-4 1v-3l3-1 1-12h-4v-2h-2z" fill="#C8C5B4"/>
<path transform="translate(290,659)" d="m0 0 2 1 1 3 2 17 1 2v6l-11 3-2 2-13-2v-1l23-3-1-6z" fill="#DBE7DD"/>
<path transform="translate(1141,142)" d="m0 0h4l-1 3h-9l1 2-3-1v-2h-2l1 4 9 1v2h-4v2l4 1-4 1 1 1 1 2-10-3v-7l1-5z" fill="#288F3C"/>
<path transform="translate(944,644)" d="m0 0v3l-10 15-2 12-1 12 12 1 9 2-4 2-17-3-2-2 1-14 3-13z" fill="#339044"/>
<path transform="translate(841,210)" d="m0 0h1l2 17-12-2 5-9z" fill="#9C9C9B"/>
<path transform="translate(301,694)" d="m0 0 2 1-1 8 3 12v5h-16v2h-2v-4h15l-2-9-6-1v-1l5-1 1-10z" fill="#F8F8F8"/>
<path transform="translate(902,149)" d="m0 0 2 3 1 5v10l-3 4-9 1-11-3v-1h17l3-1v-9l-1-7z" fill="#C6C6C5"/>
<path transform="translate(855,927)" d="m0 0 1 2-3 8-2 2-11 1 1-7 7-1z" fill="#E2111D"/>
<path transform="translate(979,624)" d="m0 0h6l1 20-2-1v-18l-5 4-7 12-5 4-17-3h-3v-2h7l13 2 4-4z" fill="#389148"/>
<path transform="translate(228,663)" d="m0 0 6 2 13 8 9 2 4 6 5 3 2-9h1l-1 12-5-2-9-6-7-4-17-10z" fill="#85BB8F"/>
<path transform="translate(940,291)" d="m0 0h3v11l-5-1-11-4 3-2z" fill="#9C9C9B"/>
<path transform="translate(413,915)" d="m0 0h2v2h4v2h8l1 1 11 1v2h10l2 2-6 1-27-5-6-3z" fill="#D7D1A8"/>
<path transform="translate(183,734)" d="m0 0 5 5 1 7-4 6-8 4-20 5-3-1 9-3 16-5 5-3 2-6z" fill="#FDFDFD"/>
<path transform="translate(748,808)" d="m0 0 11 3 5 2-6 9-3-1z" fill="#9C9C9B"/>
<path transform="translate(370,927)" d="m0 0 1 2h2v2l10 2 2 2v5l-10-1-5-6z" fill="#DE101C"/>
<path transform="translate(990,492)" d="m0 0h7l10 6h10v2h-16l-6-2h-5l-1-5z" fill="#539A60"/>
<path transform="translate(299,740)" d="m0 0 2 3 1 2h17l18-1h12l5 2-1 3-2-2h-51l-1-1z" fill="#99C0A0"/>
<path transform="translate(255,661)" d="m0 0h10l7 1-2 21 1 4-2 3-3-3 2-17v-6l-13-1z" fill="#FDFDFD"/>
<path transform="translate(228,490)" d="m0 0 6 2v5l-11 1-1 1h-6l2-1 2-4 4-3z" fill="#107536"/>
<path transform="translate(687,279)" d="m0 0h6l-4 1-1 4-14 12-6 5h-2l-1-4h4v-2h2v-2h2v-2h2v-2l5-2 1-2h2v-2h2v-2h2z" fill="#E0DBBA"/>
<path transform="translate(810,722)" d="m0 0 15 3-1 5-3 5-3-1-6-8v-2h-2z" fill="#999B98"/>
<path transform="translate(922,743)" d="m0 0h1v5l-6 1h-9l-14-2-25-1 1-2 29 1 6 1h11l6-1z" fill="#5FA66B"/>
<path transform="translate(604,999)" d="m0 0 5 1 1 2v9l-6 1-2-4v-6z" fill="#30355D"/>
<path transform="translate(937,851)" d="m0 0m-1 1 1 3-11 3h-23l-10-2v-1l6-1 4 1h24z" fill="#74AC7E"/>
<path transform="translate(133,510)" d="m0 0 1 3-5 9-12 6-12 5-2-1 8-5 15-7h2l2-6z" fill="#FDFDFD"/>
<path transform="translate(486,131)" d="m0 0 1 2 4 1 3 9 5 5v2l-4 1-8-9z" fill="#FDFDFD"/>
<path transform="translate(514,737)" d="m0 0m-2 1 2 1-3 3-2 5-10 8h-2v2l-5 4h-2l2-4 6-7 11-9z" fill="#E4E3DD"/>
<path transform="translate(555,120)" d="m0 0 1 3-3 7-5 3h-6l-3-3 7-3 6-2 2-4z" fill="#FDFDFD"/>
<path transform="translate(221,627)" d="m0 0 4 1-2 2-5 1-17 1-7 1-8 8v-3l8-8 4-1 19-1z" fill="#FDFDFD"/>
<path transform="translate(224,500)" d="m0 0h7l-1 3-11 6-3-1 5-5h-28v-1l29-1z" fill="#72957C"/>
<path transform="translate(1085,165)" d="m0 0 2 1-15 14-5 1-25-3 1-2 17 2 13-1 2-4z" fill="#FDFDFD"/>
<path transform="translate(733,991)" d="m0 0h4v2h-4v2l-8 3-12 7h-2v2l-7 4h-3v-2l24-14z" fill="#D5D4CD"/>
<path transform="translate(277,759)" d="m0 0 23 1h39v1l-6 1h-52-3z" fill="#429250"/>
<path transform="translate(509,127)" d="m0 0 5 2 3 4v8l-3 5h-3v-14z" fill="#FDFDFD"/>
<path transform="translate(669,120)" d="m0 0 7 6 9 3-1 3-7 1-5-2-3-5z" fill="#FDFDFD"/>
<path transform="translate(918,790)" d="m0 0v3l-7 9h-2l-2 5-5 5-5 4v-3l6-8 10-10zm-23 26m-2 1 2 1-2 1z" fill="#EDEDED"/>
<path transform="translate(82,665)" d="m0 0 1 2h4l-2 6-3 4-1 3-5-2-1-2z" fill="#257C45"/>
<path transform="translate(690,979)" d="m0 0h6l2 3-1 5-6 3-3-5 1-5z" fill="#282B57"/>
<path transform="translate(386,933)" d="m0 0h1l2 9 5 6 15 3v1h-10l-6-1v-2l-4-1v-2h-3v-4l-9-2 4-1 4 1z" fill="#BCBBB6"/>
<path transform="translate(757,927)" d="m0 0h10l-2 2-21 6-9 3-4-1 2-2h6v-2l6-2h6v-2h6z" fill="#E1DAAF"/>
<path transform="translate(386,889)" d="m0 0 1 4 14 2v1h-14v15l-1 16h-1v-37z" fill="#DDDCD5"/>
<path transform="translate(308,692)" d="m0 0 4 1 1 3v18h-2l-1-18h-6v16l-2-4-1-7 2-7z" fill="#7AB084"/>
<path transform="translate(951,611)" d="m0 0h7v10l-9-1 1-8z" fill="#369347"/>
<path transform="translate(171,436)" d="m0 0h2l3 10-9 2h-3l1-5 1-2h3v-2h2z" fill="#1A793F"/>
<path transform="translate(89,663)" d="m0 0h3v40l-2-4v-31h-3l1-4z" fill="#FDFDFD"/>
<path transform="translate(714,127)" d="m0 0 1 2-2 5v12l-4-2-2-4 1-8z" fill="#FDFDFD"/>
<path transform="translate(238,615)" d="m0 0 1 2-3 3 25 1v1h-26v20h-1l-1-20-6 5-2-1 7-7z" fill="#A1C1A6"/>
<path transform="translate(639,332)" d="m0 0h6l2 2-1 4-2 2h-8l-1-4z" fill="#121B1A"/>
<path transform="translate(361,807)" d="m0 0 3 3 1 3v13l1 10 6 9-2 1-3-4v-2l-4-2-1-6v-21z" fill="#8ABB93"/>
<path transform="translate(625,331)" d="m0 0 4 1-6 7-11 9h-7l4-1v-2h2v-2h2v-2h4l2-4h2v-2h2v-2h2z" fill="#E6E1C1"/>
<path transform="translate(539,103)" d="m0 0h3l-1 4-6 5-4 9h-2l3-11 1-3-6 1 2-2 8-2z" fill="#FBFBFB"/>
<path transform="translate(111,707)" d="m0 0 1 4-3 7-2 3h-3l-2-5v-3z" fill="#3A914A"/>
<path transform="translate(596,758)" d="m0 0h2l-2 4-5 7h-2v2h-2v4h-2v4l-5 2 2-6 7-10 5-6z" fill="#08110D"/>
<path transform="translate(354,747)" d="m0 0h2v4l-7 3-9 6h-12l1-2 10-1 11-8z" fill="#F9F9F8"/>
<path transform="translate(892,157)" d="m0 0 5 1 4 4v4l-5 1-6-5 1-4z" fill="#A9A9A8"/>
<path transform="translate(330,157)" d="m0 0 5 1-1 5-3 3h-6l-1-5z" fill="#A5A5A4"/>
<path transform="translate(1028,701)" d="m0 0 1 2-10 21 1 11h-1l-2-9-5-1 1-2h4l2-6 8-15z" fill="#FDFDFD"/>
<path transform="translate(446,483)" d="m0 0 3 1-11 10-7 6-4-1v-2h4v-2h2v-2h2v-2h2v-2h2v-2h4v-2z" fill="#EAE7D5"/>
<path transform="translate(102,313)" d="m0 0h5v13l-2 3-5-12v-3z" fill="#479255"/>
<path transform="translate(425,499)" d="m0 0h3l-1 4-4 3h-2l-2 4-6 5h-4v-2h2v-2h2v-2h2v-2h4v-2h2v-2h2v-2h2z" fill="#E6E1BF"/>
<path transform="translate(1142,127)" d="m0 0 2 4 1 6-3 2h-5v-8z" fill="#0D7434"/>
<path transform="translate(951,127)" d="m0 0h8l5 2-2 1-8-1-1 10h9v1h-12l-1-5z" fill="#319043"/>
<path transform="translate(815,928)" d="m0 0h1v22h13l-2 2h-10v6l2 1-5 1z" fill="#E3E3DE"/>
<path transform="translate(882,428)" d="m0 0m-2 1 2 1v3l-7 6h-2v2h-2v2l-4 3h-2l2-4 7-8z" fill="#E0DFD9"/>
<path transform="translate(262,143)" d="m0 0h7l-3 9-4-2-1 1h-5l2-2v-3z" fill="#096F34"/>
<path transform="translate(747,19)" d="m0 0h7v2l-30 5h-5l1-2z" fill="#9D9D9C"/>
<path transform="translate(513,945)" d="m0 0h2v2h4v2h6v2h4v2h4v2h4l-1 3-6-2-17-8z" fill="#DCD4A2"/>
<path transform="translate(707,263)" d="m0 0h2v3h-2l-2 4-5 2-2 4-3 1-1 2h-5v-2h4v-2h2v-2h2v-2h2v-2h2v-2h4v-2h2z" fill="#ECE7C9"/>
<path transform="translate(700,1010)" d="m0 0 1 3-8 4h-4v2l-10 4-5-1 3-2 16-7z" fill="#C1C0B6"/>
<path transform="translate(1022,749)" d="m0 0 2 3 6 19-1 5-2-3-3-7-1-3z" fill="#FAFAF9"/>
<path transform="translate(712,570)" d="m0 0 2 1-3 3-2 5-12 8h-2l2-4 14-12z" fill="#E1E0DC"/>
<path transform="translate(108,256)" d="m0 0 1 3-6 14-4 12h-2l2-9 6-16z" fill="#FDFDFD"/>
<path transform="translate(262,152)" d="m0 0 3 2-3 6 5-2-1 6-3 4v-7h-2l-1 2-3-9z" fill="#066B34"/>
<path transform="translate(547,397)" d="m0 0h2l-1 5-11 9-4 2v-4h2v-2h2v-2h2v-2h4v-2h2v-2h2z" fill="#E3DEBA"/>
<path transform="translate(231,792)" d="m0 0h1v10l-1 3h2l2-5 2-1-6 18h-1l-1-17z" fill="#FDFDFD"/>
<path transform="translate(868,745)" d="m0 0 4 5 11 7 5 1v2l-8-1-10-7-2-1-1 4-1-3z" fill="#F5F5F5"/>
<path transform="translate(495,441)" d="m0 0h2l-1 4-5 4h-2l-2 4-5 3-1-3h2v-2h2v-2h2v-2h2v-2h2v-2z" fill="#E5DFB6"/>
<path transform="translate(461,469)" d="m0 0h3l-1 4-13 11-3-1v-2h2v-2h2v-2h4l2-4h2v-2h2z" fill="#E4DFBC"/>
<path transform="translate(1137,113)" d="m0 0 14 1v1l-13 1-4 4-3 9-4-4h2l2-6 5-5z" fill="#FDFDFD"/>
<path transform="translate(349,847)" d="m0 0 2 1v2h-2v2l-10 3h-8l1-3 16-3z" fill="#8CB994"/>
<path transform="translate(770,522)" d="m0 0m-2 1 2 1-4 4v3l-5 4h-2v2l-5 4-2-1 9-11z" fill="#D7D7D1"/>
<path transform="translate(1016,379)" d="m0 0 4 5 10 9 4 5-6-2-5-5-6-7z" fill="#F8F8F8"/>
<path transform="translate(595,975)" d="m0 0h8v2h12l7 1v1h-19l-12-2z" fill="#CCC8B1"/>
<path transform="translate(933,772)" d="m0 0v3l-13 15-4 2 2-4 9-11zm-18 20m-2 1 2 1-2 1z" fill="#EFEFEF"/>
<path transform="translate(911,713)" d="m0 0h1v13h11l2 1v6l-1-4-13-1-1-1v-13z" fill="#56A264"/>
<path transform="translate(80,539)" d="m0 0h6l-2 2h-10l1 9 14 2v1h-15l-2-4v-9z" fill="#5BA268"/>
<path transform="translate(385,533)" d="m0 0h4l-2 4-11 9-3-1v-2h2v-2h2v-2h2v-2l5-2z" fill="#E4DFBF"/>
<path transform="translate(1116,313)" d="m0 0 6 1-1 6-4 8h-1z" fill="#409050"/>
<path transform="translate(837,465)" d="m0 0 2 1-4 4-2 5-8 6h-2l-1 2 1-4 8-9z" fill="#DBDAD3"/>
<path transform="translate(575,773)" d="m0 0 1 4-1 7 5-3 3-2v4h-2v2h-2v2h-4v-2h-2l-1-6 2-5z" fill="#060B09"/>
<path transform="translate(916,714)" d="m0 0h2v7l7-1h8l-1 4v-2l-3 1h-12l-1-1z" fill="#4D9A5B"/>
<path transform="translate(825,475)" d="m0 0 2 1-4 4-2 5-8 6h-2l-1 2 1-4 7-8z" fill="#E0DFDD"/>
<path transform="translate(491,937)" d="m0 0h6v2h6v2h4v2h4v2h2v2l-6-2-15-6z" fill="#E2DDBD"/>
<path transform="translate(852,873)" d="m0 0 5 1v5h-2v-2h-16v-2z" fill="#F8E04D"/>
<path transform="translate(490,992)" d="m0 0 6 1 18 10v2h-3v-2l-4-1-17-9z" fill="#DAD9D2"/>
<path transform="translate(441,974)" d="m0 0 17 4 7 3-4 1-22-6z" fill="#CAC8BB"/>
<path transform="translate(1006,599)" d="m0 0h8l-2 4-5 4h-3v-6h2z" fill="#559E62"/>
<path transform="translate(1162,393)" d="m0 0h4v2l-13 7h-3l2-5z" fill="#17733E"/>
<path transform="translate(80,299)" d="m0 0 5 5 9 16 1 4-3-3-7-11-5-9z" fill="#FDFDFD"/>
<path transform="translate(153,122)" d="m0 0 1 3-1 6-1 19-2-1-1-8 3-17z" fill="#FDFDFD"/>
<path transform="translate(257,117)" d="m0 0 4 1 6 5v2h-8v-2h-2l-1-5z" fill="#096F34"/>
<path transform="translate(368,853)" d="m0 0 3 1v2l5 1 5 5 3 1 1-3v6l-4-1-11-8-2-1z" fill="#B9D5BE"/>
<path transform="translate(868,751)" d="m0 0 5 2 3 3v5l3 1-1 2-8-7-2-2z" fill="#3B8A4F"/>
<path transform="translate(621,339)" d="m0 0 2 1-2 7h-4v2h-9l4-2z" fill="#28275B"/>
<path transform="translate(1159,153)" d="m0 0h8l4 2-10 1-5 2h-3l-1 3-1-4 1-2z" fill="#B5D4BB"/>
<path transform="translate(536,957)" d="m0 0h5v2h6v2l10 2v2l-3 1-17-7z" fill="#E4DDB2"/>
<path transform="translate(486,125)" d="m0 0h3l-2 4-5 1-10 6-3 3v-5z" fill="#FDFDFD"/>
<path transform="translate(1062,115)" d="m0 0 1 2h-2v2l-5 4-5 5-3 2v-6l10-6z" fill="#499356"/>
<path transform="translate(1117,636)" d="m0 0h7l-1 2-12 2h-7l-2-3z" fill="#FDFDFD"/>
<path transform="translate(1127,549)" d="m0 0 9 1h11l2-1-1 4h-13l-7-1z" fill="#389348"/>
<path transform="translate(61,386)" d="m0 0h7l-2 5v2l-9-3-1-2z" fill="#3B914B"/>
<path transform="translate(639,319)" d="m0 0h5l-2 4-10 7-3 1v-2l4-4h2v-2h2v-2h2z" fill="#EAE6CA"/>
<path transform="translate(413,890)" d="m0 0h18v1l-14 1-2 1h-14l1-2z" fill="#FEDD10"/>
<path transform="translate(689,955)" d="m0 0 4 2-12 5-6 2-2-1v-2l6-2h4v-2z" fill="#E0D8A7"/>
<path transform="translate(415,899)" d="m0 0h4v2h-4v2h-2v2h-2l2 8v4l-3 1v-15z" fill="#EEEAD0"/>
<path transform="translate(208,599)" d="m0 0h8l1 1v7l-4-2-5-4z" fill="#319043"/>
<path transform="translate(1166,387)" d="m0 0h5l1 4-7 8-1-3 1-4 2-2z" fill="#6FAF7B"/>
<path transform="translate(265,119)" d="m0 0 4 2 6 9 1 6-2-1-2-5v-3h-9l1-2h5z" fill="#FDFDFD"/>
<path transform="translate(1112,711)" d="m0 0 4 1 3 2-1 8-3-1-3-7z" fill="#3E954E"/>
<path transform="translate(1019,379)" d="m0 0h3l2 3 3 3 1 5-4-2-6-5z" fill="#1A783D"/>
<path transform="translate(882,168)" d="m0 0h12l6 1-1 3-11-1-6-2z" fill="#BABAB9"/>
<path transform="translate(260,140)" d="m0 0h13l-2 3h-10l-4 2 2-4z" fill="#FDFDFD"/>
<path transform="translate(616,803)" d="m0 0h1v12h-2l-1 5-3-1v-3h3v-7z" fill="#060A09"/>
<path transform="translate(947,640)" d="m0 0h7l13 2 5-2-5 5-17-3h-3z" fill="#4D955A"/>
<path transform="translate(95,514)" d="m0 0 2 1-20 20-2-1z" fill="#F8F8F8"/>
<path transform="translate(341,765)" d="m0 0 2 1-7 6-4 13h-1v-6l3-10 5-3z" fill="#EDEDED"/>
<path transform="translate(103,116)" d="m0 0 2 1-13 12-2-3-1-5 5 2z" fill="#FAFAFA"/>
<path transform="translate(514 1e3)" d="m0 0 16 8 2 2-4 1-11-6v-2l-4-2z" fill="#C4C3BA"/>
<path transform="translate(669,963)" d="m0 0h6l-4 3-11 4h-6l3-1v-2h6v-2h6z" fill="#E8E4C8"/>
<path transform="translate(201,654)" d="m0 0h12l5 2 1 2 3 2-6-1-9-2-6-2z" fill="#81B88B"/>
<path transform="translate(477,931)" d="m0 0h4v2h6v2h6v2l-3 1-15-5z" fill="#E0D8A7"/>
<path transform="translate(765,923)" d="m0 0h8v2h-8v2h-12l4-2z" fill="#F9DE38"/>
<path transform="translate(413,915)" d="m0 0h2v2h4v2h8l1 2-6 1-10-4z" fill="#D8D09D"/>
<path transform="translate(1057,280)" d="m0 0h3l3 8-1 5-2-1v-4l-3-1-1 2z" fill="#FAFAFA"/>
<path transform="translate(956,153)" d="m0 0 3 3 1 3-2 1h-2l-1 4-3-4-1-6 6 3z" fill="#559C62"/>
<path transform="translate(577,971)" d="m0 0 6 1 8 1v2l4 1h-8l-12-3z" fill="#E4DDAF"/>
<path transform="translate(796,898)" d="m0 0h8l3 1v2h-16v-2z" fill="#DFD491"/>
<path transform="translate(236,702)" d="m0 0 5 2 9 6v2l-4-1-6-4h-3z" fill="#75B480"/>
<path transform="translate(162,118)" d="m0 0 12 6v6l-7-6z" fill="#349045"/>
<path transform="translate(682,69)" d="m0 0 5 1-1 14-3 1v-12z" fill="#FAFAFA"/>
<path transform="translate(342,793)" d="m0 0 8 6 8 5 3 3-9-3-8-6v-2h-2z" fill="#70AB7B"/>
<path transform="translate(615,581)" d="m0 0 9 2 2 3h-11z" fill="#29235D"/>
<path transform="translate(511,26)" d="m0 0 11 1 8 2v2l-9-1-10-2z" fill="#9E9E9D"/>
<path transform="translate(807,917)" d="m0 0h2v3l-6 2h-10l4-1v-2z" fill="#DFD9B1"/>
<path transform="translate(967,611)" d="m0 0h8l6 2 5 5h-4l-3-3-12-2z" fill="#91BF99"/>
<path transform="translate(407,515)" d="m0 0 4 1-9 8-3-1v-2h2v-2h2v-2h4z" fill="#EEEACF"/>
<path transform="translate(671,1022)" d="m0 0h5l-3 3-12 3-3-1 3-2z" fill="#CAC9C4"/>
<path transform="translate(369,903)" d="m0 0h1l1 20 2 5-4 3z" fill="#B3B3B2"/>
<path transform="translate(610,797)" d="m0 0h1l1 18 2 1-4-1-1-2v-10z" fill="#0D1E17"/>
<path transform="translate(287,722)" d="m0 0h1v12l-2 1h-7l1-2 5-1 1-9z" fill="#FDFDFD"/>
<path transform="translate(1134,541)" d="m0 0h15v8h-1l-1-5-13-1z" fill="#288F3B"/>
<path transform="translate(270,154)" d="m0 0h2l-2 6-5 9-1-4 4-10z" fill="#469254"/>
<path transform="translate(1141,142)" d="m0 0h4l-1 3h-9l1 2-3-1v-2h-2v5l-2 1 1-7z" fill="#329043"/>
<path transform="translate(388,88)" d="m0 0 6 1 5 3-2 1-10-2 1 3-4-2v-3z" fill="#FDFDFD"/>
<path transform="translate(541,69)" d="m0 0 1 3-1 9v4h-2l-2-12z" fill="#FDFDFD"/>
<path transform="translate(623,975)" d="m0 0h13l-2 2-5 1h-12v-1h6z" fill="#E8E4C8"/>
<path transform="translate(421,970)" d="m0 0 18 3 2 2h-9l-9-2z" fill="#D9D8D3"/>
<path transform="translate(734,92)" d="m0 0h2l2 5v7l-2 4h-2l1-10z" fill="#FDFDFD"/>
<path transform="translate(635 1e3)" d="m0 0h9l-1 4h-8z" fill="#DBDBDB"/>
<path transform="translate(542,713)" d="m0 0 4 1-4 5-6 4 1-4z" fill="#E2E0D4"/>
<path transform="translate(78,669)" d="m0 0 1 2-3 6 4 4-5-2-5-4 1-2 4-1z" fill="#FDFDFD"/>
<path transform="translate(1034,387)" d="m0 0 3 1 1 13-4-4z" fill="#FDFDFD"/>
<path transform="translate(589,361)" d="m0 0h3v4l-7 5-2-1v-2h2v-2h2v-2h2z" fill="#E2E0B7"/>
<path transform="translate(108,294)" d="m0 0 1 4-1 19-1-4h-5l3-3h2v-13z" fill="#ECECEC"/>
<path transform="translate(489,92)" d="m0 0h2l-1 5v11h-2l-1-3v-10z" fill="#FDFDFD"/>
<path transform="translate(421,898)" d="m0 0h8l4 2-2 1h-12v-2z" fill="#DCD291"/>
<path transform="translate(789,891)" d="m0 0 1 3 2 1h-2v2l6 1v1h-7v-2h-4l1-4z" fill="#E8E0A7"/>
<path transform="translate(1079,772)" d="m0 0h2l1 3-12 2h-6l3-2z" fill="#FDFDFD"/>
<path transform="translate(446,483)" d="m0 0 3 1-9 8-3-1v-2h2v-2h4v-2z" fill="#EEEBD7"/>
<path transform="translate(505,434)" d="m0 0 1 3-8 6-1-4h2v-2h2v-2z" fill="#E7E2C4"/>
<path transform="translate(511,427)" d="m0 0h3l-1 4-7 5-3-2 4-1v-2h2v-2h2z" fill="#E2DCB1"/>
<path transform="translate(555,391)" d="m0 0 4 1-9 8h-1v-5h2v-2h4z" fill="#E5E2CE"/>
<path transform="translate(687,279)" d="m0 0h6l-4 1-1 4-6 4-1-3h2v-2h2v-2h2z" fill="#D5D0AD"/>
<path transform="translate(245,102)" d="m0 0 4 1 11 11h-3l-10-9-2-1z" fill="#FDFDFD"/>
<path transform="translate(747,985)" d="m0 0 4 2-14 5-2-2z" fill="#BBB9B1"/>
<path transform="translate(931,687)" d="m0 0h12l9 2-4 2-17-3z" fill="#76A57F"/>
<path transform="translate(1143,671)" d="m0 0 3 4-1 5h-4l-3-8 3 1 1 5h2z" fill="#5DA269"/>
<path transform="translate(953,612)" d="m0 0h4v8l-4-1-1-6z" fill="#066B34"/>
<path transform="translate(227,488)" d="m0 0 6 1 2 1 1 5-2 1-1-4-5-1-6 1 3-3z" fill="#E4E8E5"/>
<path transform="translate(625,331)" d="m0 0 4 1-6 7-3 1-2-2 3-1v-2h2v-2h2z" fill="#E7E0B5"/>
<path transform="translate(158,155)" d="m0 0 4 2 13 9-3 1-10-7z" fill="#FAFAFA"/>
<path transform="translate(712,979)" d="m0 0h3v3l-7 4-3-1 4-4z" fill="#C6C6C5"/>
<path transform="translate(942,765)" d="m0 0 2 1-13 13-2-1 8-9z" fill="#3D8951"/>
<path transform="translate(502,747)" d="m0 0m-1 1m-1 1m-2 1 2 1-3 6-5 4h-2l2-4z" fill="#E2E0D3"/>
<path transform="translate(1121,320)" d="m0 0 1 3-5 12h-1v-7z" fill="#FDFDFD"/>
<path transform="translate(262,839)" d="m0 0h2l5 5 5 4 5 2-3 1-8-4-6-6z" fill="#F0F0F0"/>
<path transform="translate(889,774)" d="m0 0h2l2 9-5 6-2-1 3-3z" fill="#8FB996"/>
<path transform="translate(84,667)" d="m0 0h3l-2 6-3 4-1 3-3-1 5-8z" fill="#519F5F"/>
<path transform="translate(89,663)" d="m0 0h3v10l-2-1v-4h-3l1-4z" fill="#F9F9F9"/>
<path transform="translate(470,463)" d="m0 0 3 1-8 7-2-4h2v-2z" fill="#EAE6D0"/>
<path transform="translate(701,949)" d="m0 0 4 1-1 2-8 3-5 1 2-1v-2h4v-2h4z" fill="#EAE3BC"/>
<path transform="translate(838,942)" d="m0 0 1 3h-2v2h-2v2l-6 2-3-2 7-3 2-2h3z" fill="#BDBCB0"/>
<path transform="translate(985,652)" d="m0 0m-3 1 3 1-3 3-4 2h-3v2h-2l2-4z" fill="#F0F0EF"/>
<path transform="translate(221,503)" d="m0 0h7l-3 3-6 3-3-1z" fill="#91C099"/>
<path transform="translate(532,411)" d="m0 0 1 3-8 6v-5h2v-2z" fill="#E6E2CC"/>
<path transform="translate(739,933)" d="m0 0h6l-1 2-9 3-4-1 2-2h6z" fill="#E8E4C9"/>
<path transform="translate(873,846)" d="m0 0 2 3 7 1 1 3-9-1-3-2z" fill="#66A270"/>
<path transform="translate(277,759)" d="m0 0 23 1v1l-19 1h-3z" fill="#719778"/>
<path transform="translate(1126,717)" d="m0 0h2l-2 6-3 3h-3v-4l4-1z" fill="#70AC7A"/>
<path transform="translate(199,519)" d="m0 0 7 6 5 6-1 4-4-7-7-7z" fill="#C7C7C6"/>
<path transform="translate(528,978)" d="m0 0h1v9l-5-2 2-6z" fill="#2B2A5A"/>
<path transform="translate(727,937)" d="m0 0 6 1-3 2-9 3v-2h2v-2h4z" fill="#DFDAB9"/>
<path transform="translate(586,771)" d="m0 0 1 4h-2v4l-5 2 2-6z" fill="#19241F"/>
<path transform="translate(585,753)" d="m0 0h3l-2 5-4 5-1-4h2z" fill="#060E09"/>
<path transform="translate(720,564)" d="m0 0m-2 1 2 1-4 4v3l-5 2-1 2 1-4z" fill="#D8D7CE"/>
<path transform="translate(757,533)" d="m0 0m-2 1 2 1-8 10h-2l-1 2 1-4z" fill="#E0DFD9"/>
<path transform="translate(581,369)" d="m0 0 4 1-7 6-3-1v-2h2v-2h4z" fill="#F2EED6"/>
<path transform="translate(323,152)" d="m0 0 1 4-1 11-3-3v-5h2z" fill="#FDFDFD"/>
<path transform="translate(427,143)" d="m0 0 4 1 7 4v1l-7-1-2-2-5-1z" fill="#FDFDFD"/>
<path transform="translate(1144,383)" d="m0 0 9 1 7 2-1 2-7-1v-2l-8-1z" fill="#90C199"/>
<path transform="translate(725,247)" d="m0 0h2l-2 6-3 2h-3v-2h2v-2h2v-2h2z" fill="#EAE2B0"/>
<path transform="translate(78,205)" d="m0 0 4 2 5 6-3 2z" fill="#FDFDFD"/>
<path transform="translate(513,113)" d="m0 0 2 1-7 4v2l-6-1 1-2z" fill="#FDFDFD"/>
<path transform="translate(757,981)" d="m0 0 5 1-4 2-9 2v-2z" fill="#C4C3BC"/>
<path transform="translate(883,851)" d="m0 0 6 1 9 2v1h-8l-7-2z" fill="#349145"/>
<path transform="translate(254,828)" d="m0 0 4 4 4 5-1 2-4-4v-2l-6-2z" fill="#FDFDFD"/>
<path transform="translate(134,796)" d="m0 0h1l1 9-3 2-4-1 3-3z" fill="#F5F5F5"/>
<path transform="translate(268,681)" d="m0 0 3 3-1 6-4-2z" fill="#F9F9F9"/>
<path transform="translate(648,260)" d="m0 0 3 1h-2l-2 9-2-1 1-8z" fill="#11101D"/>
<path transform="translate(1165,124)" d="m0 0 7 6 3 4-1 2-4-3-3-5z" fill="#BCD1C0"/>
<path transform="translate(260,115)" d="m0 0 4 2 5 6v2h-2l-7-7z" fill="#81B38A"/>
</svg>
